<svg width="3717" height="2059" viewBox="0 0 3717 2059" fill="none" xmlns="http://www.w3.org/2000/svg">
<g id="Group 22">
<path id="background" d="M815.147 17.9741L1996.16 445.812C2447.4 440.643 3383.27 429.521 3516.82 426.378C3650.37 423.236 3715.18 561.891 3716.47 612.954L3716.47 1565.78C3716.47 1722.77 3579.6 1803.28 3511.17 1823.91C3160.46 1886.81 2432.16 2018.94 2324.68 2044.3C2217.2 2069.66 2100.25 2056.74 2046.93 2038.27C1459.72 1827.94 259.942 1398.53 158.502 1363.51C57.061 1328.48 9.62693e-06 1251.16 1.05373e-05 1174.81L1.41915e-05 868.379C1.48396e-05 814.036 26.1656 763.215 39.2484 744.597C152.463 583.077 399.422 228.337 481.541 101.537C563.66 -25.2642 738.161 -7.00536 815.147 17.9741Z" fill="#0D5257"></path>
<path id="Kembla | Grange" fill="#3D7579" transform="rotate(-0.0190992 2353.14 531.214)" d="M2532.3 531.21 C2532.3 607.96 2532.3 684.7 2532.3 761.45 2532.3 761.45 2527.82 761.45 2522.3 761.45 2469.24 761.45 2416.19 761.45 2363.14 761.45 2357.61 761.45 2353.14 761.45 2353.14 761.45 2353.14 684.7 2353.14 607.96 2353.14 531.21 2353.14 531.21 2357.61 531.21 2363.14 531.21 2416.19 531.21 2469.24 531.21 2522.3 531.21 2527.82 531.21 2532.3 531.21 2532.3 531.21 z"></path>
<g id="Group 17">
<path id="Vector 9" d="M2593.1 614.304L2533.41 614.635L2533.74 674.323" stroke="#D9D9D9" stroke-width="3"></path>
<path id="Rectangle 12" d="M2593.1 614.305C2583.9 650.004 2571.3 663.444 2533.74 674.323L2533.41 614.635L2593.1 614.305Z" fill="#D9D9D9" fill-opacity="0.3"></path>
</g>
<g id="Group 18">
<path id="Vector 9_2" d="M2352.96 672.388L2352.69 612.7L2293 612.973" stroke="#D9D9D9" stroke-width="3"></path>
<path id="Rectangle 12_2" d="M2352.96 672.388C2317.27 663.156 2303.84 650.543 2293 612.973L2352.69 612.7L2352.96 672.388Z" fill="#D9D9D9" fill-opacity="0.3"></path>
</g>
<path id="Vector 10" d="M1041.1 1659.85L1041.1 1370.9" stroke="#3D7579" stroke-width="12"></path>
<path id="Vector 11" d="M2149.36 2020.04L2149.36 1683.06" stroke="#3D7579" stroke-width="12"></path>
<path id="Union" fill-rule="evenodd" clip-rule="evenodd" d="M1557.66 1429.46L1557.66 1639.18L1808.07 1639.18C1809.36 1639.21 1810.64 1639.23 1811.94 1639.23C1881.37 1639.23 1937.66 1592.27 1937.66 1534.34C1937.66 1476.42 1881.37 1429.46 1811.94 1429.46C1811.03 1429.46 1810.13 1429.46 1809.23 1429.48L1809.23 1429.46L1557.66 1429.46Z" fill="#3D7579"></path>
<path id="Stairs" d="M1781.98 1518.49L1778.95 1522.98C1777.71 1521.27 1776.13 1520.25 1773.97 1520.25C1771.82 1520.25 1769.93 1521.88 1769.93 1523.99C1769.93 1525.89 1771.51 1527.07 1774.55 1528.26C1777.01 1529.23 1778.81 1530.2 1780.13 1531.34C1782.29 1533.19 1783.08 1535.57 1783.08 1538.38C1783.08 1545.11 1778.86 1549.73 1772.17 1549.73C1767.59 1549.73 1764.25 1547.14 1761.96 1543.27L1766.14 1539.17C1767.11 1541.99 1769.62 1544.01 1772.13 1544.01C1774.55 1544.01 1776.39 1542.03 1776.39 1539.22C1776.39 1536.8 1774.85 1535.43 1771.86 1534.29C1766.05 1532.09 1763.24 1529.8 1763.24 1524.74C1763.24 1519.29 1767.29 1514.8 1772.92 1514.8C1776.13 1514.8 1780.13 1516.43 1781.98 1518.49ZM1787.61 1519.95H1793.77V1527.25H1797.55V1532.44H1793.77V1548.85H1787.61V1532.44H1785.5V1527.25H1787.61V1519.95ZM1813.83 1529.27V1527.25H1819.9V1548.85H1813.83V1546.87H1813.74C1812.38 1548.59 1810.13 1549.56 1807.89 1549.56C1802.04 1549.56 1797.94 1544.41 1797.94 1537.94C1797.94 1531.87 1801.9 1526.55 1807.8 1526.55C1810.04 1526.55 1812.33 1527.51 1813.83 1529.27ZM1809.3 1544.1C1812.24 1544.1 1814.44 1541.24 1814.44 1538.03C1814.44 1534.91 1812.33 1532 1809.25 1532C1806.3 1532 1804.19 1534.91 1804.19 1538.03C1804.19 1541.2 1806.35 1544.1 1809.3 1544.1ZM1831.95 1518.19C1831.95 1520.25 1830.32 1521.84 1828.3 1521.84C1826.23 1521.84 1824.65 1520.25 1824.65 1518.19C1824.65 1516.21 1826.23 1514.53 1828.3 1514.53C1830.37 1514.53 1831.95 1516.21 1831.95 1518.19ZM1825.22 1527.25H1831.38V1548.85H1825.22V1527.25ZM1850.76 1527.07L1850.01 1532.79C1849.26 1532.27 1848.38 1532 1847.46 1532C1844.34 1532 1842.75 1533.94 1842.75 1538.91V1548.85H1836.59V1527.25H1842.75V1529.49H1842.84C1844.07 1527.6 1845.92 1526.55 1848.21 1526.55C1849.09 1526.55 1849.88 1526.77 1850.76 1527.07ZM1867.03 1528.79L1864.39 1532.35C1863.51 1531.52 1862.36 1530.86 1861.13 1530.86C1860.12 1530.86 1859.11 1531.65 1859.11 1532.71C1859.11 1533.81 1860.12 1534.33 1862.1 1535.13C1863.11 1535.52 1864.03 1535.87 1864.74 1536.27C1866.98 1537.55 1867.99 1539.26 1867.99 1541.9C1867.99 1546.48 1864.39 1549.56 1859.59 1549.56C1856.64 1549.56 1853.87 1548.24 1851.98 1545.95L1854.79 1542.3C1856.03 1543.66 1857.57 1544.81 1859.37 1544.81C1860.73 1544.81 1861.83 1543.88 1861.83 1542.47C1861.83 1541.15 1860.82 1540.49 1858.75 1539.7C1857.04 1539.04 1855.72 1538.47 1854.84 1537.63C1853.65 1536.53 1853.21 1535.17 1853.21 1533.54C1853.21 1529.49 1856.07 1526.55 1860.07 1526.55C1862.36 1526.55 1865.27 1527.25 1867.03 1528.79Z" fill="white"></path>
<path fill="white" transform="rotate(-90 1578 1615.46)" id="Rectangle 5" d="M1740 1615.46 C1740 1622.79 1740 1630.12 1740 1637.46 1686 1637.46 1632 1637.46 1578 1637.46 1578 1630.12 1578 1622.79 1578 1615.46 1632 1615.46 1686 1615.46 1740 1615.46 z"></path>
<path fill="white" transform="rotate(-90 1606 1615.46)" id="Rectangle 6" d="M1768 1615.46 C1768 1622.79 1768 1630.12 1768 1637.46 1714 1637.46 1660 1637.46 1606 1637.46 1606 1630.12 1606 1622.79 1606 1615.46 1660 1615.46 1714 1615.46 1768 1615.46 z"></path>
<path fill="white" transform="rotate(-90 1633 1615.46)" id="Rectangle 7" d="M1795 1615.46 C1795 1623.12 1795 1630.79 1795 1638.46 1741 1638.46 1687 1638.46 1633 1638.46 1633 1630.79 1633 1623.12 1633 1615.46 1687 1615.46 1741 1615.46 1795 1615.46 z"></path>
<path fill="white" transform="rotate(-90 1661 1615.46)" id="Rectangle 8" d="M1823 1615.46 C1823 1622.79 1823 1630.12 1823 1637.46 1769 1637.46 1715 1637.46 1661 1637.46 1661 1630.12 1661 1622.79 1661 1615.46 1715 1615.46 1769 1615.46 1823 1615.46 z"></path>
<path fill="white" transform="rotate(-90 1688 1615.46)" id="Rectangle 9" d="M1850 1615.46 C1850 1623.12 1850 1630.79 1850 1638.46 1796 1638.46 1742 1638.46 1688 1638.46 1688 1630.79 1688 1623.12 1688 1615.46 1742 1615.46 1796 1615.46 1850 1615.46 z"></path>
<path fill="white" transform="rotate(-90 1035.7 1244.88)" id="Rectangle 10" d="M1412.81 1244.88 C1412.81 1657.26 1412.81 2069.64 1412.81 2482.03 1287.1 2482.03 1161.4 2482.03 1035.7 2482.03 1035.7 2069.64 1035.7 1657.26 1035.7 1244.88 1161.4 1244.88 1287.1 1244.88 1412.81 1244.88 z"></path>
<path fill="#0D5257" transform="rotate(-90 2014.98 1236.51)" id="Rectangle 11" d="M2373.66 1236.51 C2373.66 1319.67 2373.66 1402.84 2373.66 1486 2254.1 1486 2134.54 1486 2014.97 1486 2014.97 1402.84 2014.97 1319.67 2014.97 1236.5 2134.54 1236.5 2254.1 1236.5 2373.66 1236.5 z"></path>
<path id="Toilets" d="M2060.31 1098.6H2089.18V1106.79H2079.45V1146.85H2070.04V1106.79H2060.31V1098.6ZM2117.66 1131.17C2117.66 1140.97 2110.88 1147.88 2101.15 1147.88C2091.42 1147.88 2084.64 1140.97 2084.64 1131.17C2084.64 1121.32 2091.42 1114.41 2101.15 1114.41C2111 1114.41 2117.66 1121.51 2117.66 1131.17ZM2101.15 1139.94C2105.56 1139.94 2108.57 1135.65 2108.57 1131.17C2108.57 1126.63 2105.63 1122.34 2101.08 1122.34C2096.86 1122.34 2093.72 1126.5 2093.72 1131.17C2093.72 1135.65 2096.8 1139.94 2101.15 1139.94ZM2132.91 1102.25C2132.91 1105.25 2130.55 1107.56 2127.6 1107.56C2124.59 1107.56 2122.29 1105.25 2122.29 1102.25C2122.29 1099.37 2124.59 1096.93 2127.6 1096.93C2130.61 1096.93 2132.91 1099.37 2132.91 1102.25ZM2123.12 1115.43H2132.08V1146.85H2123.12V1115.43ZM2139.66 1092.58H2148.62V1146.85H2139.66V1092.58ZM2183.68 1132.58H2163.01C2163.07 1137.96 2165.37 1141.03 2169.21 1141.03C2172.22 1141.03 2174.01 1139.24 2175.23 1136.74L2183.49 1138.09C2181.25 1144.42 2175.87 1147.88 2169.21 1147.88C2159.61 1147.88 2153.53 1141.03 2153.53 1131.43C2153.53 1121.45 2158.97 1114.41 2168.77 1114.41C2178.11 1114.41 2183.68 1120.68 2183.68 1131.81V1132.58ZM2163.26 1127.01H2175.23C2174.65 1123.11 2172.22 1120.68 2169.21 1120.68C2166.4 1120.68 2163.9 1122.73 2163.26 1127.01ZM2189.73 1104.81H2198.69V1115.43H2204.19V1122.98H2198.69V1146.85H2189.73V1122.98H2186.65V1115.43H2189.73V1104.81ZM2226.97 1117.67L2223.13 1122.85C2221.85 1121.64 2220.18 1120.68 2218.39 1120.68C2216.92 1120.68 2215.45 1121.83 2215.45 1123.37C2215.45 1124.97 2216.92 1125.73 2219.8 1126.89C2221.27 1127.46 2222.62 1127.97 2223.64 1128.55C2226.9 1130.41 2228.38 1132.9 2228.38 1136.74C2228.38 1143.4 2223.13 1147.88 2216.15 1147.88C2211.86 1147.88 2207.83 1145.96 2205.08 1142.63L2209.18 1137.32C2210.97 1139.3 2213.21 1140.97 2215.83 1140.97C2217.82 1140.97 2219.42 1139.62 2219.42 1137.57C2219.42 1135.65 2217.94 1134.69 2214.94 1133.54C2212.44 1132.58 2210.52 1131.75 2209.24 1130.53C2207.51 1128.93 2206.87 1126.95 2206.87 1124.58C2206.87 1118.69 2211.03 1114.41 2216.86 1114.41C2220.18 1114.41 2224.41 1115.43 2226.97 1117.67Z" fill="white"></path>
<path fill="#0D5257" transform="rotate(-90 1460.12 1236.51)" id="Rectangle 12_3" d="M1818.8 1236.51 C1818.8 1293.84 1818.8 1351.17 1818.8 1408.51 1699.24 1408.51 1579.68 1408.51 1460.12 1408.51 1460.12 1351.17 1460.12 1293.84 1460.12 1236.5 1579.68 1236.5 1699.24 1236.5 1818.8 1236.5 z"></path>
<path id="Vector 9_3" d="M2179.2 1313.57L2179.2 1253.88L2119.52 1253.88" stroke="#D9D9D9" stroke-width="3"></path>
<path id="Rectangle 12_4" d="M2179.2 1313.57C2143.56 1304.17 2130.19 1291.5 2119.52 1253.88L2179.2 1253.88L2179.2 1313.57Z" fill="#D9D9D9" fill-opacity="0.3"></path>
<path id="Vector 9_4" d="M1427.18 1304.57L1427.18 1244.88L1367.49 1244.88" stroke="#D9D9D9" stroke-width="3"></path>
<path id="Rectangle 12_5" d="M1427.18 1304.57C1391.53 1295.17 1378.16 1282.5 1367.49 1244.88L1427.18 1244.88L1427.18 1304.57Z" fill="#D9D9D9" fill-opacity="0.3"></path>
<path id="Vector 9_5" d="M1367.49 867.767L1427.18 867.767L1427.18 808.078" stroke="#D9D9D9" stroke-width="3"></path>
<path id="Rectangle 12_6" d="M1367.49 867.767C1376.89 832.119 1389.56 818.749 1427.18 808.078L1427.18 867.767L1367.49 867.767Z" fill="#D9D9D9" fill-opacity="0.3"></path>
<path id="Vector 9_6" d="M2119.52 861.767L2179.2 861.767L2179.2 802.078" stroke="#D9D9D9" stroke-width="3"></path>
<path id="Rectangle 12_7" d="M2119.52 861.767C2128.91 826.119 2141.58 812.749 2179.2 802.078L2179.2 861.767L2119.52 861.767Z" fill="#D9D9D9" fill-opacity="0.3"></path>
<g id="Group 13">
<path id="Vector 9_7" d="M2557.71 1183.81L2557.71 1124.12L2498.02 1124.12" stroke="#D9D9D9" stroke-width="3"></path>
<path id="Rectangle 12_8" d="M2557.71 1183.81C2522.06 1174.41 2508.69 1161.74 2498.02 1124.12L2557.71 1124.12L2557.71 1183.81Z" fill="#D9D9D9" fill-opacity="0.3"></path>
</g>
<g id="Group 14">
<path id="Vector 9_8" d="M2557.71 996.024L2557.71 936.336L2498.02 936.336" stroke="#D9D9D9" stroke-width="3"></path>
<path id="Rectangle 12_9" d="M2557.71 996.024C2522.06 986.629 2508.69 973.955 2498.02 936.336L2557.71 936.336L2557.71 996.024Z" fill="#D9D9D9" fill-opacity="0.3"></path>
</g>
<g id="Group 15">
<path id="Vector 9_9" d="M2848.82 878.837L2908.5 878.837L2908.5 819.148" stroke="#D9D9D9" stroke-width="3"></path>
<path id="Rectangle 12_10" d="M2848.82 878.837C2858.21 843.189 2870.89 829.819 2908.5 819.148L2908.5 878.837L2848.82 878.837Z" fill="#D9D9D9" fill-opacity="0.3"></path>
</g>
<g id="Group 16">
<path id="Vector 9_10" d="M3280.58 1025.71L3280.58 1085.4L3340.27 1085.4" stroke="#D9D9D9" stroke-width="3"></path>
<path id="Rectangle 12_11" d="M3280.58 1025.71C3316.23 1035.1 3329.6 1047.78 3340.27 1085.4L3280.58 1085.4L3280.58 1025.71Z" fill="#D9D9D9" fill-opacity="0.3"></path>
</g>
<g id="Group 17_2">
<path id="Vector 9_11" d="M2600.61 1645.67L2658.26 1630.22L2642.81 1572.57" stroke="#D9D9D9" stroke-width="3"></path>
<path id="Rectangle 12_12" d="M2600.61 1645.67C2600.46 1608.81 2609.24 1592.61 2642.81 1572.57L2658.26 1630.22L2600.61 1645.67Z" fill="#D9D9D9" fill-opacity="0.3"></path>
</g>
<g id="Group 18_2">
<path id="Vector 9_12" d="M2848.98 1529.16L2863.48 1587.06L2921.38 1572.57" stroke="#D9D9D9" stroke-width="3"></path>
<path id="Rectangle 12_13" d="M2848.98 1529.16C2885.84 1529.62 2901.89 1538.67 2921.38 1572.57L2863.48 1587.06L2848.98 1529.16Z" fill="#D9D9D9" fill-opacity="0.3"></path>
</g>
<path fill="#3D7579" transform="rotate(180 2371.85 1239.57)" id="Rectangle 25" d="M2470.85 1239.57 C2470.85 1296.57 2470.85 1353.57 2470.85 1410.57 2470.85 1410.57 2466.37 1410.57 2460.85 1410.57 2434.51 1410.57 2408.18 1410.57 2381.85 1410.57 2376.32 1410.57 2371.85 1410.57 2371.85 1410.57 2371.85 1353.57 2371.85 1296.57 2371.85 1239.57 2371.85 1239.57 2376.32 1239.57 2381.85 1239.57 2408.18 1239.57 2434.51 1239.57 2460.85 1239.57 2466.37 1239.57 2470.85 1239.57 2470.85 1239.57 z"></path>
<path fill="#3D7579" transform="rotate(180 2371.85 1051.57)" id="Rectangle 26" d="M2470.85 1051.57 C2470.85 1108.57 2470.85 1165.57 2470.85 1222.57 2470.85 1222.57 2466.37 1222.57 2460.85 1222.57 2434.51 1222.57 2408.18 1222.57 2381.85 1222.57 2376.32 1222.57 2371.85 1222.57 2371.85 1222.57 2371.85 1165.57 2371.85 1108.57 2371.85 1051.57 2371.85 1051.57 2376.32 1051.57 2381.85 1051.57 2408.18 1051.57 2434.51 1051.57 2460.85 1051.57 2466.37 1051.57 2470.85 1051.57 2470.85 1051.57 z"></path>
<path id="Elevators" d="M1513.54 1181.13L1513.54 1156.17L1521.74 1156.17L1521.74 1171.72L1532.36 1171.72L1532.36 1156.74L1540.55 1156.74L1540.55 1171.72L1553.61 1171.72L1553.61 1156.17L1561.8 1156.17L1561.8 1181.13L1513.54 1181.13ZM1507.53 1149.33L1507.53 1140.37L1561.8 1140.37L1561.8 1149.33L1507.53 1149.33ZM1547.53 1105.31L1547.53 1125.99C1552.9 1125.92 1555.98 1123.62 1555.98 1119.78C1555.98 1116.77 1554.18 1114.98 1551.69 1113.76L1553.03 1105.51C1559.37 1107.75 1562.82 1113.12 1562.82 1119.78C1562.82 1129.38 1555.98 1135.46 1546.38 1135.46C1536.39 1135.46 1529.35 1130.02 1529.35 1120.23C1529.35 1110.88 1535.62 1105.31 1546.76 1105.31L1547.53 1105.31ZM1541.96 1125.73L1541.96 1113.76C1538.06 1114.34 1535.62 1116.77 1535.62 1119.78C1535.62 1122.59 1537.67 1125.09 1541.96 1125.73ZM1530.38 1104.71L1530.38 1094.85L1548.1 1087.49L1530.38 1081.03L1530.38 1071.24L1562.44 1085.7L1562.44 1090.31L1530.38 1104.71ZM1533.32 1047.44L1530.38 1047.44L1530.38 1038.61L1561.8 1038.61L1561.8 1047.44L1558.92 1047.44L1558.92 1047.57C1561.42 1049.55 1562.82 1052.82 1562.82 1056.08C1562.82 1064.59 1555.34 1070.55 1545.93 1070.55C1537.1 1070.55 1529.35 1064.79 1529.35 1056.21C1529.35 1052.95 1530.76 1049.62 1533.32 1047.44ZM1554.89 1054.03C1554.89 1049.75 1550.73 1046.55 1546.06 1046.55C1541.51 1046.55 1537.29 1049.62 1537.29 1054.1C1537.29 1058.39 1541.51 1061.46 1546.06 1061.46C1550.66 1061.46 1554.89 1058.32 1554.89 1054.03ZM1519.75 1030.23L1519.75 1021.27L1530.38 1021.27L1530.38 1015.77L1537.93 1015.77L1537.93 1021.27L1561.8 1021.27L1561.8 1030.23L1537.93 1030.23L1537.93 1033.3L1530.38 1033.3L1530.38 1030.23L1519.75 1030.23ZM1546.12 982.108C1555.91 982.108 1562.82 988.892 1562.82 998.62C1562.82 1008.35 1555.91 1015.13 1546.12 1015.13C1536.26 1015.13 1529.35 1008.35 1529.35 998.62C1529.35 988.764 1536.46 982.108 1546.12 982.108ZM1554.89 998.62C1554.89 994.204 1550.6 991.196 1546.12 991.196C1541.58 991.196 1537.29 994.14 1537.29 998.684C1537.29 1002.91 1541.45 1006.04 1546.12 1006.04C1550.6 1006.04 1554.89 1002.97 1554.89 998.62ZM1530.12 956.486L1538.44 957.574C1537.67 958.662 1537.29 959.942 1537.29 961.286C1537.29 965.83 1540.1 968.134 1547.34 968.134L1561.8 968.134L1561.8 977.094L1530.38 977.094L1530.38 968.134L1533.64 968.134L1533.64 968.006C1530.89 966.214 1529.35 963.526 1529.35 960.198C1529.35 958.918 1529.67 957.766 1530.12 956.486ZM1532.62 932.826L1537.8 936.666C1536.58 937.946 1535.62 939.61 1535.62 941.402C1535.62 942.874 1536.78 944.346 1538.31 944.346C1539.91 944.346 1540.68 942.874 1541.83 939.994C1542.41 938.522 1542.92 937.178 1543.5 936.154C1545.35 932.89 1547.85 931.418 1551.69 931.418C1558.34 931.418 1562.82 936.666 1562.82 943.642C1562.82 947.93 1560.9 951.962 1557.58 954.714L1552.26 950.618C1554.25 948.826 1555.91 946.586 1555.91 943.962C1555.91 941.978 1554.57 940.378 1552.52 940.378C1550.6 940.378 1549.64 941.85 1548.49 944.858C1547.53 947.354 1546.7 949.274 1545.48 950.554C1543.88 952.282 1541.9 952.922 1539.53 952.922C1533.64 952.922 1529.35 948.762 1529.35 942.938C1529.35 939.61 1530.38 935.386 1532.62 932.826Z" fill="white"></path>
<path id="Level 3" d="M1106.76 1022.47H1120.87V1082.57H1140.84V1094.85H1106.76V1022.47ZM1188.06 1073.45H1157.05C1157.14 1081.51 1160.6 1086.12 1166.36 1086.12C1170.87 1086.12 1173.56 1083.43 1175.38 1079.69L1187.77 1081.7C1184.41 1091.21 1176.34 1096.39 1166.36 1096.39C1151.96 1096.39 1142.84 1086.12 1142.84 1071.72C1142.84 1056.74 1151 1046.18 1165.69 1046.18C1179.7 1046.18 1188.06 1055.59 1188.06 1072.29V1073.45ZM1157.43 1065.09H1175.38C1174.52 1059.24 1170.87 1055.59 1166.36 1055.59C1162.14 1055.59 1158.39 1058.66 1157.43 1065.09ZM1188.97 1047.72H1203.75L1214.79 1074.31L1224.49 1047.72H1239.17L1217.48 1095.81H1210.57L1188.97 1047.72ZM1285.43 1073.45H1254.42C1254.51 1081.51 1257.97 1086.12 1263.73 1086.12C1268.24 1086.12 1270.93 1083.43 1272.75 1079.69L1285.14 1081.7C1281.78 1091.21 1273.71 1096.39 1263.73 1096.39C1249.33 1096.39 1240.21 1086.12 1240.21 1071.72C1240.21 1056.74 1248.37 1046.18 1263.06 1046.18C1277.07 1046.18 1285.43 1055.59 1285.43 1072.29V1073.45ZM1254.8 1065.09H1272.75C1271.89 1059.24 1268.24 1055.59 1263.73 1055.59C1259.51 1055.59 1255.76 1058.66 1254.8 1065.09ZM1292.86 1013.45H1306.3V1094.85H1292.86V1013.45ZM1389.85 1041C1389.85 1046.66 1387.84 1052.71 1382.94 1056.07C1388.8 1058.57 1392.25 1066.05 1392.25 1073.73C1392.25 1087.65 1382.37 1096.77 1368.16 1096.77C1355.2 1096.77 1345.02 1087.27 1344.16 1073.93H1358.37C1358.65 1079.69 1362.49 1084.49 1368.73 1084.49C1374.49 1084.49 1378.43 1079.3 1378.43 1072.87C1378.43 1068.36 1376.22 1064.42 1373.34 1062.6C1371.81 1061.64 1370.46 1061.35 1368.83 1061.35C1368.06 1061.35 1366.43 1061.45 1365.66 1061.54V1051.46H1367.01C1373.92 1051.46 1376.41 1046.85 1376.41 1041.48C1376.41 1036.2 1373.05 1032.26 1368.16 1032.26C1363.93 1032.26 1360.67 1035.81 1360.29 1041.38H1346.85C1348.29 1028.04 1356.73 1020.55 1369.02 1020.55C1381.79 1020.55 1389.85 1028.9 1389.85 1041Z" fill="#0D5257"></path>
<path id="Vector" d="M1152.56 1528.34C1149.97 1521.39 1141.94 1518.92 1141.94 1518.92L1141.94 1533.28C1139.35 1534.74 1136.87 1536.37 1134.55 1538.2L1133.8 1538.79L1133.8 1558.51L1134.55 1559.1C1136.99 1561.02 1139.63 1562.71 1142.37 1564.23L1142.37 1576.19C1142.37 1577.29 1142.98 1578.28 1143.96 1578.78C1160.61 1587.31 1181.48 1589.69 1195.93 1590.17L1195.93 1584.36C1182.63 1583.91 1163.65 1581.81 1148.19 1574.38L1148.19 1567.14C1159.54 1572.19 1172.05 1574.59 1181.83 1575.68C1196.86 1577.38 1208.5 1576.55 1208.99 1576.52L1210.82 1576.38L1210.82 1520.92L1208.99 1520.79C1208.5 1520.75 1196.86 1519.92 1181.83 1521.61C1173.29 1522.58 1162.67 1524.51 1152.56 1528.34ZM1205 1526.43L1205 1570.87C1196.49 1571.09 1174.96 1570.84 1156.02 1564.05L1156.02 1533.25C1174.97 1526.46 1196.49 1526.21 1205 1526.43Z" fill="#0D5257"></path>
<path id="Vector_2" d="M1180.75 1473.5L1180.75 1477.45L1177 1477.45L1177 1513.52L1201.8 1513.52C1206.76 1513.52 1210.82 1509.46 1210.82 1504.5L1210.82 1486.47C1210.82 1481.63 1206.96 1477.69 1202.17 1477.49L1202.17 1473.5C1202.17 1469.46 1198.89 1466.17 1194.85 1466.17L1188.08 1466.17C1184.04 1466.18 1180.75 1469.46 1180.75 1473.5ZM1194.85 1471.81C1195.76 1471.81 1196.54 1472.59 1196.54 1473.5L1196.54 1477.45L1186.39 1477.45L1186.39 1473.5C1186.39 1472.59 1187.17 1471.81 1188.08 1471.81L1194.85 1471.81Z" fill="#0D5257"></path>
<g id="Group 12">
<path id="Vector_3" d="M2111.61 979.046C2116.9 979.046 2121.21 974.74 2121.21 969.45C2121.21 964.16 2116.9 959.854 2111.61 959.854C2106.32 959.854 2102.02 964.16 2102.02 969.45C2102.02 974.74 2106.32 979.046 2111.61 979.046ZM2111.61 964.138C2114.53 964.138 2116.94 966.52 2116.94 969.45C2116.94 972.373 2114.56 974.777 2111.61 974.777C2108.67 974.777 2106.28 972.395 2106.28 969.45C2106.28 966.505 2108.67 964.138 2111.61 964.138Z" fill="white"></path>
<path id="Vector_4" d="M2164.77 978.912C2170.03 978.912 2174.29 974.644 2174.29 969.392C2174.29 964.139 2170.03 959.872 2164.77 959.872C2159.52 959.872 2155.25 964.14 2155.25 969.392C2155.25 974.644 2159.52 978.912 2164.77 978.912ZM2164.77 964.139C2167.66 964.139 2170.03 966.506 2170.03 969.392C2170.03 972.277 2167.66 974.644 2164.77 974.644C2161.89 974.644 2159.52 972.277 2159.52 969.392C2159.52 966.506 2161.89 964.139 2164.77 964.139Z" fill="white"></path>
<path id="Vector_5" d="M2184.67 990.625C2183.19 984.794 2177.98 980.699 2171.96 980.699H2158.63C2152.61 980.699 2147.4 984.779 2145.92 990.625L2141.3 1009.01C2140.84 1010.9 2141.24 1012.86 2142.44 1014.4C2143.63 1015.94 2145.46 1016.83 2147.4 1016.83C2147.57 1016.83 2147.73 1016.8 2147.9 1016.79L2145.74 1025.42C2145.4 1026.75 2145.71 1028.1 2146.51 1029.16C2147.34 1030.23 2148.61 1030.85 2149.95 1030.85H2154.32V1056.64C2154.32 1060.12 2157.14 1062.95 2160.63 1062.95C2162.22 1062.95 2163.69 1062.34 2164.82 1061.36C2165.93 1062.35 2167.38 1062.95 2169 1062.95C2172.48 1062.95 2175.33 1060.13 2175.33 1056.64V1030.85H2180.71C2182.06 1030.85 2183.33 1030.23 2184.16 1029.16C2184.97 1028.08 2185.27 1026.73 2184.92 1025.42L2182.77 1016.79C2182.94 1016.81 2183.1 1016.83 2183.27 1016.83C2185.21 1016.83 2187.04 1015.94 2188.23 1014.4C2189.42 1012.86 2189.82 1010.9 2189.36 1009.01L2184.75 990.625H2184.67ZM2162.63 1056.63C2162.63 1057.76 2161.71 1058.66 2160.58 1058.66C2159.44 1058.66 2158.54 1057.76 2158.54 1056.63V1030.83H2162.62V1056.63H2162.63ZM2170.98 1056.63C2170.98 1057.76 2170.06 1058.66 2168.92 1058.66C2167.79 1058.66 2166.89 1057.76 2166.89 1056.63V1030.83H2170.97V1056.63H2170.98ZM2184.77 1011.77C2184.39 1012.27 2183.81 1012.54 2183.19 1012.54C2182.27 1012.54 2181.48 1011.92 2181.25 1011.03L2176.55 992.3C2176.24 991.143 2175.09 990.452 2173.94 990.745C2172.8 991.053 2172.09 992.21 2172.4 993.36L2180.65 1026.58L2149.85 1026.47L2153.44 1012.12L2158.18 993.338C2158.49 992.181 2157.77 991.031 2156.64 990.723C2155.48 990.453 2154.33 991.129 2154.02 992.279L2149.33 1011.01C2149.09 1011.91 2148.3 1012.51 2147.38 1012.51C2146.76 1012.51 2146.19 1012.24 2145.8 1011.75C2145.42 1011.24 2145.28 1010.64 2145.43 1010.03L2150.05 991.647C2151.03 987.725 2154.55 984.952 2158.63 984.952H2171.96C2176.02 984.952 2179.54 987.703 2180.54 991.647L2185.15 1010.03C2185.3 1010.63 2185.18 1011.24 2184.79 1011.75L2184.77 1011.77Z" fill="white"></path>
<path id="Vector_6" d="M2121.98 981.044H2101.27C2095.69 981.044 2091.14 985.582 2091.14 991.12V1014.93C2091.14 1018.32 2093.88 1021.05 2097.26 1021.05C2097.91 1021.05 2098.53 1020.91 2099.12 1020.72V1055.59C2099.12 1059.63 2102.39 1062.9 2106.44 1062.9C2108.47 1062.9 2110.28 1062.09 2111.61 1060.77C2112.94 1062.1 2114.77 1062.9 2116.81 1062.9C2120.83 1062.9 2124.12 1059.63 2124.12 1055.59V1020.72C2124.69 1020.91 2125.31 1021.05 2125.96 1021.05C2129.35 1021.05 2132.08 1018.31 2132.08 1014.93V991.12C2132.08 985.56 2127.54 981.044 2122 981.044H2121.98ZM2127.79 1014.94C2127.79 1015.94 2126.98 1016.79 2125.94 1016.79C2124.91 1016.79 2124.09 1015.96 2124.09 1014.94V995.013C2124.09 993.841 2123.13 992.879 2121.96 992.879C2120.79 992.879 2119.83 993.841 2119.83 995.013V1055.61C2119.83 1057.28 2118.46 1058.64 2116.79 1058.64C2115.12 1058.64 2113.73 1057.27 2113.73 1055.61V1014.77C2113.73 1013.57 2112.77 1012.63 2111.6 1012.63C2110.43 1012.63 2109.46 1013.57 2109.46 1014.77V1055.61C2109.46 1057.28 2108.1 1058.64 2106.43 1058.64C2104.75 1058.64 2103.39 1057.27 2103.39 1055.61V995.013C2103.39 993.841 2102.43 992.879 2101.26 992.879C2100.09 992.879 2099.13 993.841 2099.13 995.013V1014.94C2099.13 1015.94 2098.3 1016.79 2097.26 1016.79C2096.22 1016.79 2095.41 1015.96 2095.41 1014.94V991.127C2095.41 987.911 2098.03 985.319 2101.24 985.319H2121.96C2125.18 985.319 2127.77 987.934 2127.77 991.127V1014.94H2127.79Z" fill="white"></path>
</g>

<path id="VIC-HUB-L3E-05" d="M 3570.3 1677.16 C 3563.86 1692 3553.53 1704.82 3540.4 1714.27 C 3527.27 1723.72 3511.83 1729.44 3495.71 1730.83 C 3479.59 1732.21 3463.4 1729.22 3448.85 1722.16 C 3434.3 1715.1 3421.92 1704.23 3413.04 1690.71 C 3404.16 1677.19 3399.09 1661.52 3398.39 1645.36 C 3397.68 1629.2 3401.36 1613.15 3409.03 1598.91 C 3416.7 1584.67 3428.08 1572.76 3441.96 1564.46 C 3455.84 1556.16 3471.71 1551.76 3487.89 1551.74 L 3487.95 1594.75 C 3479.53 1594.76 3471.27 1597.05 3464.04 1601.37 C 3456.81 1605.7 3450.89 1611.89 3446.9 1619.31 C 3442.91 1626.72 3440.99 1635.07 3441.36 1643.49 C 3441.73 1651.9 3444.36 1660.05 3448.99 1667.09 C 3453.61 1674.13 3460.05 1679.78 3467.63 1683.46 C 3475.2 1687.13 3483.63 1688.69 3492.02 1687.97 C 3500.41 1687.25 3508.44 1684.27 3515.28 1679.35 C 3522.11 1674.43 3527.49 1667.76 3530.84 1660.04 Z M 3487.51 1486.51 C 3471.34 1486.6 3455.44 1482.32 3441.49 1474.12 C 3427.55 1465.92 3416.08 1454.1 3408.31 1439.92 C 3400.53 1425.73 3396.74 1409.71 3397.33 1393.54 C 3397.91 1377.38 3402.86 1361.67 3411.64 1348.09 C 3420.43 1334.5 3432.72 1323.55 3447.22 1316.38 C 3461.72 1309.21 3477.89 1306.1 3494.02 1307.37 C 3510.14 1308.64 3525.63 1314.24 3538.83 1323.59 C 3552.03 1332.94 3562.46 1345.69 3569 1360.48 L 3529.67 1377.89 C 3526.26 1370.19 3520.84 1363.56 3513.97 1358.69 C 3507.09 1353.83 3499.04 1350.91 3490.64 1350.25 C 3482.25 1349.59 3473.83 1351.21 3466.28 1354.94 C 3458.74 1358.67 3452.34 1364.37 3447.77 1371.44 C 3443.19 1378.52 3440.62 1386.69 3440.31 1395.1 C 3440.01 1403.52 3441.98 1411.86 3446.03 1419.24 C 3450.08 1426.63 3456.05 1432.78 3463.3 1437.05 C 3470.56 1441.32 3478.84 1443.54 3487.26 1443.49 Z" fill="#3D7579"/>
<path id="Union_2" fill-rule="evenodd" clip-rule="evenodd" d="M99.9066 696.969C95.3129 693.903 94.0746 687.693 97.1406 683.1L202.418 525.371C205.484 520.777 211.693 519.539 216.287 522.605L459.821 685.153C464.415 688.219 465.653 694.429 462.587 699.022L357.31 856.751C354.244 861.345 348.035 862.583 343.441 859.517L99.9066 696.969ZM217.582 504.52C214.516 509.113 215.754 515.323 220.348 518.389L463.883 680.937C468.476 684.003 474.686 682.765 477.752 678.171L583.029 520.442C586.095 515.849 584.856 509.639 580.263 506.573L336.728 344.025C332.135 340.959 325.925 342.197 322.859 346.791L217.582 504.52ZM1108.03 1395.78L1108.03 1653.78L1297.03 1653.78L1297.03 1395.78L1108.03 1395.78ZM1748 1881.46C1748 1886.98 1752.48 1891.46 1758 1891.46L2000 1891.46C2005.52 1891.46 2010 1886.98 2010 1881.46L2010 1756.46C2010 1750.93 2005.52 1746.46 2000 1746.46L1758 1746.46C1752.48 1746.46 1748 1750.93 1748 1756.46L1748 1881.46ZM3502.75 1186.33C3497.23 1186.33 3492.75 1181.86 3492.75 1176.33L3492.75 986.332C3492.75 980.809 3497.23 976.332 3502.75 976.332L3706.75 976.332C3712.27 976.332 3716.75 980.809 3716.75 986.332L3716.75 1176.33C3716.75 1181.86 3712.27 1186.33 3706.75 1186.33L3502.75 1186.33ZM3492.75 943.332C3492.75 948.855 3497.23 953.332 3502.75 953.332L3706.75 953.332C3712.27 953.332 3716.75 948.855 3716.75 943.332L3716.75 754.332C3716.75 748.809 3712.27 744.332 3706.75 744.332L3502.75 744.332C3497.23 744.332 3492.75 748.809 3492.75 754.332L3492.75 943.332ZM3493.4 676.489C3493.4 682.011 3488.92 686.489 3483.4 686.489L3324.5 686.489C3318.98 686.489 3314.5 682.011 3314.5 676.489L3314.5 447.959C3314.5 442.436 3318.98 437.959 3324.5 437.959L3483.4 437.959C3488.92 437.959 3493.4 442.436 3493.4 447.959L3493.4 676.489ZM3270.03 667.959C3275.56 667.959 3280.03 663.482 3280.03 657.959L3280.03 447.959C3280.03 442.436 3275.56 437.959 3270.03 437.959L3111.03 437.959C3105.51 437.959 3101.03 442.436 3101.03 447.959L3101.03 657.959C3101.03 663.482 3105.51 667.959 3111.03 667.959L3270.03 667.959ZM3083.03 657.959C3083.03 663.482 3078.56 667.959 3073.03 667.959L2914.03 667.959C2908.51 667.959 2904.03 663.482 2904.03 657.959L2904.03 447.959C2904.03 442.436 2908.51 437.959 2914.03 437.959L3073.03 437.959C3078.56 437.959 3083.03 442.436 3083.03 447.959L3083.03 657.959ZM2877.03 667.959C2882.56 667.959 2887.03 663.482 2887.03 657.959L2887.03 447.959C2887.03 442.436 2882.56 437.959 2877.03 437.959L2718.03 437.959C2712.51 437.959 2708.03 442.436 2708.03 447.959L2708.03 657.959C2708.03 663.482 2712.51 667.959 2718.03 667.959L2877.03 667.959ZM2205 657.457C2205 662.98 2200.52 667.457 2195 667.457L2036 667.457C2030.48 667.457 2026 662.98 2026 657.457L2026 465.457C2026 459.934 2030.48 455.457 2036 455.457L2195 455.457C2200.52 455.457 2205 459.934 2205 465.457L2205 657.457ZM1892.64 665.057C1897.82 666.968 1903.57 664.316 1905.48 659.134L1977.66 463.37C1979.57 458.188 1976.92 452.438 1971.74 450.528L1822.64 395.557C1817.46 393.646 1811.71 396.298 1809.8 401.48L1737.62 597.244C1735.71 602.426 1738.36 608.176 1743.55 610.086L1892.64 665.057ZM1699.26 589.531C1697.35 594.713 1691.6 597.365 1686.42 595.454L1537.33 540.483C1532.14 538.573 1529.49 532.823 1531.4 527.641L1606.42 324.183C1608.33 319.001 1614.08 316.349 1619.26 318.26L1768.35 373.231C1773.54 375.141 1776.19 380.891 1774.28 386.073L1699.26 589.531ZM1333.47 466.163C1338.65 468.074 1344.4 465.422 1346.31 460.24L1422.15 254.561C1424.06 249.379 1421.41 243.63 1416.23 241.719L1081.41 118.27C1076.23 116.359 1070.48 119.011 1068.57 124.193L992.734 329.872C990.824 335.053 993.476 340.803 998.657 342.714L1333.47 466.163ZM670.373 1523.9C668.462 1529.08 662.713 1531.73 657.531 1529.82L322.716 1406.37C317.534 1404.46 314.882 1398.71 316.793 1393.53L415.808 1124.99C417.718 1119.81 423.468 1117.15 428.65 1119.07L763.465 1242.51C768.646 1244.42 771.298 1250.17 769.388 1255.36L670.373 1523.9ZM2272.48 1943.24C2273.58 1948.65 2278.86 1952.14 2284.27 1951.04L2625.35 1881.46C2630.77 1880.35 2634.26 1875.07 2633.15 1869.66L2595.25 1683.85C2594.14 1678.44 2588.86 1674.95 2583.45 1676.05L2242.37 1745.63C2236.96 1746.74 2233.47 1752.02 2234.57 1757.43L2272.48 1943.24ZM2902.25 1761.7C2903.47 1767.09 2900.1 1772.45 2894.72 1773.67L2709.82 1815.8C2704.43 1817.02 2699.07 1813.65 2697.85 1808.27L2627.18 1498.07C2625.95 1492.68 2629.32 1487.32 2634.71 1486.1L2819.61 1443.97C2824.99 1442.75 2830.35 1446.12 2831.58 1451.5L2902.25 1761.7Z" fill="#3D7579"></path>
<path id="Orange" fill="#3D7579" transform="rotate(180 2770.6 1239.31)" d="M2980.23 1239.31 C2980.23 1296.2 2980.23 1353.1 2980.23 1409.99 2980.23 1409.99 2975.75 1409.99 2970.23 1409.99 2907.02 1409.99 2843.81 1409.99 2780.6 1409.99 2775.07 1409.99 2770.6 1409.99 2770.6 1409.99 2770.6 1353.1 2770.6 1296.2 2770.6 1239.31 2770.6 1239.31 2775.07 1239.31 2780.6 1239.31 2843.81 1239.31 2907.02 1239.31 2970.23 1239.31 2975.75 1239.31 2980.23 1239.31 2980.23 1239.31 z"></path>
<path fill="#3D7579" transform="rotate(180 2991.48 1239.31)" id="randwick" d="M3201.11 1239.31 C3201.11 1358.79 3201.11 1478.28 3201.11 1597.77 3201.11 1597.77 3196.63 1597.77 3191.11 1597.77 3127.9 1597.77 3064.69 1597.77 3001.48 1597.77 2995.95 1597.77 2991.48 1597.77 2991.48 1597.77 2991.48 1478.28 2991.48 1358.79 2991.48 1239.31 2991.48 1239.31 2995.95 1239.31 3001.48 1239.31 3064.69 1239.31 3127.9 1239.31 3191.11 1239.31 3196.63 1239.31 3201.11 1239.31 3201.11 1239.31 z"></path>
<path id="Rectangle 30" d="M1107.71 852.366C1107.71 857.889 1103.23 862.366 1097.71 862.366L907.711 862.366C902.188 862.366 897.711 857.889 897.711 852.366L897.711 631.359C897.711 625.117 903.368 620.4 909.509 621.522L1099.51 656.246C1104.26 657.114 1107.71 661.254 1107.71 666.083L1107.71 852.366Z" fill="#3D7579"></path>
<path id="Rectangle 32" d="M1333.71 852.366C1333.71 857.889 1329.23 862.366 1323.71 862.366L1133.71 862.366C1128.19 862.366 1123.71 857.889 1123.71 852.366L1123.71 671.565C1123.71 665.254 1129.48 660.521 1135.67 661.759L1325.67 699.766C1330.35 700.701 1333.71 704.805 1333.71 709.572L1333.71 852.366Z" fill="#3D7579"></path>
<path id="Rectangle 31" d="M881.711 852.366C881.711 857.889 877.234 862.366 871.711 862.366L682.711 862.366C677.188 862.366 672.711 857.889 672.711 852.366L672.711 585.786C672.711 579.403 678.609 574.654 684.845 576.016L873.845 617.292C878.437 618.295 881.711 622.361 881.711 627.062L881.711 852.366Z" fill="#3D7579"></path>
<path id="Penrith" fill="#3D7579" transform="rotate(180 3272.85 1139.82)" d="M3482.48 1139.82 C3482.48 1192.98 3482.48 1246.15 3482.48 1299.32 3482.48 1299.32 3478 1299.32 3472.48 1299.32 3409.27 1299.32 3346.06 1299.32 3282.85 1299.32 3277.32 1299.32 3272.85 1299.32 3272.85 1299.32 3272.85 1246.15 3272.85 1192.98 3272.85 1139.82 3272.85 1139.82 3277.32 1139.82 3282.85 1139.82 3346.06 1139.82 3409.27 1139.82 3472.48 1139.82 3478 1139.82 3482.48 1139.82 3482.48 1139.82 z"></path>
<path fill="#3D7579" transform="rotate(180 3272.85 1239.31)" id="Rectangle 28_2" d="M3482.48 1239.31 C3482.48 1268.62 3482.48 1297.95 3482.48 1327.27 3482.48 1327.27 3478 1327.27 3472.48 1327.27 3409.27 1327.27 3346.06 1327.27 3282.85 1327.27 3277.32 1327.27 3272.85 1327.27 3272.85 1327.27 3272.85 1297.95 3272.85 1268.62 3272.85 1239.31 3272.85 1239.31 3277.32 1239.31 3282.85 1239.31 3346.06 1239.31 3409.27 1239.31 3472.48 1239.31 3478 1239.31 3482.48 1239.31 3482.48 1239.31 z"></path>
<path fill="#3D7579" transform="rotate(180 3272.85 973.442)" id="Rectangle 29" d="M3482.48 973.44 C3482.48 1002.76 3482.48 1032.08 3482.48 1061.4 3482.48 1061.4 3478 1061.4 3472.48 1061.4 3409.27 1061.4 3346.06 1061.4 3282.85 1061.4 3277.32 1061.4 3272.85 1061.4 3272.85 1061.4 3272.85 1032.08 3272.85 1002.76 3272.85 973.44 3272.85 973.44 3277.32 973.44 3282.85 973.44 3346.06 973.44 3409.27 973.44 3472.48 973.44 3478 973.44 3482.48 973.44 3482.48 973.44 z"></path>
<path id="Wagga Wagga" fill="#3D7579" transform="rotate(180 2770.6 1051.52)" d="M2980.23 1051.52 C2980.23 1108.41 2980.23 1165.31 2980.23 1222.2 2980.23 1222.2 2975.75 1222.2 2970.23 1222.2 2907.02 1222.2 2843.81 1222.2 2780.6 1222.2 2775.07 1222.2 2770.6 1222.2 2770.6 1222.2 2770.6 1165.31 2770.6 1108.41 2770.6 1051.52 2770.6 1051.52 2775.07 1051.52 2780.6 1051.52 2843.81 1051.52 2907.02 1051.52 2970.23 1051.52 2975.75 1051.52 2980.23 1051.52 2980.23 1051.52 z"></path>
<path fill="#3D7579" transform="rotate(167.166 3198.56 1765.29)" id="Rectangle 20" d="M3408.19 1765.29 C3408.19 1887.99 3408.19 2010.69 3408.19 2133.39 3408.19 2133.39 3403.71 2133.39 3398.19 2133.39 3334.98 2133.39 3271.77 2133.39 3208.56 2133.39 3203.03 2133.39 3198.56 2133.39 3198.56 2133.39 3198.56 2010.69 3198.56 1887.99 3198.56 1765.29 3198.56 1765.29 3203.03 1765.29 3208.56 1765.29 3271.77 1765.29 3334.98 1765.29 3398.19 1765.29 3403.71 1765.29 3408.19 1765.29 3408.19 1765.29 z"></path>
<circle id="Ellipse 15" cx="955.321" cy="1556.22" r="47.8911" transform="rotate(-90 955.321 1556.22)" fill="#3D7579"></circle>
<circle id="Ellipse 16" cx="955.321" cy="1427.58" r="47.8911" transform="rotate(-90 955.321 1427.58)" fill="#3D7579"></circle>
<path id="VIC-HUB-L3E-03" d="M811.742 127.769C827.367 131.955 841.569 140.289 852.845 151.887C864.121 163.486 872.051 177.917 875.796 193.654C879.541 209.39 878.961 225.847 874.118 241.281C869.274 256.715 860.348 270.552 848.284 281.328C836.219 292.104 821.465 299.417 805.585 302.494C789.704 305.57 773.286 304.295 758.071 298.804C742.855 293.313 729.407 283.81 719.151 271.3C708.895 258.791 702.212 243.742 699.809 227.745L742.347 221.356C743.598 229.683 747.076 237.516 752.415 244.027C757.753 250.538 764.753 255.485 772.673 258.343C780.592 261.201 789.138 261.865 797.404 260.264C805.67 258.662 813.349 254.856 819.629 249.247C825.909 243.638 830.555 236.436 833.076 228.402C835.597 220.368 835.899 211.803 833.95 203.612C832 195.421 827.873 187.909 822.003 181.872C816.134 175.835 808.742 171.497 800.609 169.318L811.742 127.769Z" fill="#3D7579"></path>
<path id="VIC-HUB-L3E-01" d="M 218.816 1100.9 C 234.441 1105.09 248.644 1113.42 259.919 1125.02 C 271.195 1136.62 279.126 1151.05 282.87 1166.79 C 286.615 1182.52 286.035 1198.98 281.192 1214.41 C 276.349 1229.85 267.422 1243.69 255.358 1254.46 C 243.293 1265.24 228.54 1272.55 212.659 1275.63 C 196.778 1278.7 180.361 1277.43 165.145 1271.94 C 149.929 1266.45 136.482 1256.94 126.225 1244.43 C 115.969 1231.93 109.286 1216.88 106.883 1200.88 L 149.421 1194.49 C 150.672 1202.82 154.15 1210.65 159.489 1217.16 C 164.827 1223.67 171.827 1228.62 179.747 1231.48 C 187.667 1234.34 196.212 1235 204.478 1233.4 C 212.744 1231.8 220.424 1227.99 226.703 1222.38 C 232.983 1216.77 237.629 1209.57 240.15 1201.54 C 242.671 1193.5 242.973 1184.94 241.024 1176.75 C 239.075 1168.55 234.947 1161.04 229.078 1155.01 C 223.208 1148.97 215.816 1144.63 207.683 1142.45 L 218.816 1100.9 Z M 58.4787 982.382 C 50.3907 968.373 46.2409 952.438 46.4689 936.263 C 46.6968 920.089 51.2939 904.277 59.7735 890.501 C 68.2531 876.726 80.2997 865.499 94.6379 858.011 C 108.976 850.522 125.073 847.049 141.223 847.96 C 157.374 848.872 172.977 854.133 186.382 863.187 C 199.787 872.241 210.494 884.751 217.37 899.393 C 224.247 914.035 227.036 930.264 225.443 946.362 C 223.85 962.459 217.934 977.826 208.321 990.837 L 173.725 965.275 C 178.728 958.503 181.808 950.504 182.637 942.126 C 183.466 933.747 182.014 925.3 178.435 917.678 C 174.856 910.057 169.283 903.545 162.305 898.833 C 155.328 894.12 147.206 891.381 138.8 890.907 C 130.393 890.433 122.015 892.24 114.552 896.138 C 107.089 900.036 100.818 905.88 96.4048 913.05 C 91.9911 920.22 89.5983 928.45 89.4796 936.869 C 89.361 945.288 91.521 953.583 95.7309 960.875 L 58.4787 982.382 Z" fill="#3D7579"/>
<path id="Kitchen" d="M1181.69 1603.55L1181.69 1596.05L1197.91 1596.05L1197.91 1595.95L1181.69 1584.06L1181.69 1574.83L1199.44 1589.42L1220.14 1574.02L1220.14 1583.66L1202.86 1595.95L1202.86 1596.05L1220.14 1596.05L1220.14 1603.55L1181.69 1603.55ZM1184.6 1563.33C1186.99 1563.33 1188.83 1565.21 1188.83 1567.56C1188.83 1569.96 1186.99 1571.79 1184.6 1571.79C1182.3 1571.79 1180.36 1569.96 1180.36 1567.56C1180.36 1565.16 1182.3 1563.33 1184.6 1563.33ZM1195.1 1571.13L1195.1 1563.99L1220.14 1563.99L1220.14 1571.13L1195.1 1571.13ZM1186.64 1557.08L1186.64 1549.94L1195.1 1549.94L1195.1 1545.56L1201.12 1545.56L1201.12 1549.94L1220.14 1549.94L1220.14 1557.08L1201.12 1557.08L1201.12 1559.53L1195.1 1559.53L1195.1 1557.08L1186.64 1557.08ZM1195.87 1526.28L1202.75 1526.28C1201.17 1527.86 1200.31 1529.34 1200.31 1531.54C1200.31 1535.46 1203.93 1537.86 1207.75 1537.86C1211.78 1537.86 1214.94 1535.31 1214.94 1531.28C1214.94 1529.29 1213.97 1527.56 1212.55 1526.28L1219.43 1526.28C1220.55 1528.32 1220.96 1530.26 1220.96 1532.45C1220.96 1539.8 1214.99 1545.1 1207.7 1545.1C1200.2 1545.1 1194.29 1539.59 1194.29 1532.1C1194.29 1530.11 1194.8 1528.07 1195.87 1526.28ZM1176.9 1521.21L1176.9 1514.07L1197.19 1514.07L1197.19 1513.97C1195.15 1512.49 1194.29 1510.04 1194.29 1507.44C1194.29 1501.58 1197.96 1498.77 1204.64 1498.77L1220.14 1498.77L1220.14 1505.91L1205.51 1505.91C1200.36 1505.91 1200 1508.21 1200 1509.84C1200 1512.34 1201.58 1514.07 1207.19 1514.07L1220.14 1514.07L1220.14 1521.21L1176.9 1521.21ZM1208.77 1470.8L1208.77 1487.27C1213.06 1487.22 1215.5 1485.38 1215.5 1482.32C1215.5 1479.93 1214.08 1478.5 1212.09 1477.53L1213.16 1470.95C1218.21 1472.74 1220.96 1477.02 1220.96 1482.32C1220.96 1489.97 1215.5 1494.82 1207.85 1494.82C1199.9 1494.82 1194.29 1490.48 1194.29 1482.68C1194.29 1475.23 1199.29 1470.8 1208.16 1470.8L1208.77 1470.8ZM1204.33 1487.07L1204.33 1477.53C1201.22 1477.99 1199.29 1479.93 1199.29 1482.32C1199.29 1484.57 1200.92 1486.56 1204.33 1487.07ZM1204.64 1444.41L1220.14 1444.41L1220.14 1451.55L1205.66 1451.55C1200.66 1451.55 1200 1453.48 1200 1455.42C1200 1458.07 1201.68 1459.71 1207.19 1459.71L1220.14 1459.71L1220.14 1466.85L1195.1 1466.85L1195.1 1459.71L1197.4 1459.71L1197.4 1459.6C1195.15 1458.13 1194.29 1455.68 1194.29 1453.08C1194.29 1447.21 1197.96 1444.41 1204.64 1444.41Z" fill="white"></path>
</g>
</svg>