<?xml version="1.0" encoding="utf-8"?>
<svg xmlns="http://www.w3.org/2000/svg" viewBox="0 -0.0003 3716.75 2058.4526" width="3716.75px" height="2058.45px">
  <path d="M815.147 17.9741L1996.16 445.812C2447.4 440.643 3383.27 429.521 3516.82 426.378C3650.37 423.236 3715.18 561.891 3716.47 612.954L3716.47 1565.78C3716.47 1722.77 3579.6 1803.28 3511.17 1823.91C3160.46 1886.81 2432.16 2018.94 2324.68 2044.3C2217.2 2069.66 2100.25 2056.74 2046.93 2038.27C1459.72 1827.94 259.942 1398.53 158.502 1363.51C57.061 1328.48 9.62693e-06 1251.16 1.05373e-05 1174.81L1.41915e-05 868.379C1.48396e-05 814.036 26.1656 763.215 39.2484 744.597C152.463 583.077 399.422 228.337 481.541 101.537C563.66 -25.2642 738.161 -7.00536 815.147 17.9741Z" fill="#0D5257"/>
  <rect x="2353.14" y="531.213" width="179.163" height="230.243" rx="10" transform="matrix(0.9999999444409137, -0.00033334392084390525, 0.00033334392084390525, 0.9999999444409137, -0.17694589015354723, 0.7844343917959122)" fill="#3D7579"/>
  <path d="M2593.1 614.304L2533.41 614.634L2533.74 674.322" stroke="#D9D9D9" stroke-width="3"/>
  <path d="M2593.1 614.304C2583.9 650.003 2571.3 663.443 2533.74 674.322L2533.41 614.635L2593.1 614.304Z" fill="#D9D9D9" fill-opacity="0.3"/>
  <path d="M2352.96 672.388L2352.69 612.7L2293 612.973" stroke="#D9D9D9" stroke-width="3"/>
  <path d="M2352.96 672.388C2317.27 663.155 2303.84 650.543 2293 612.973L2352.69 612.7L2352.96 672.388Z" fill="#D9D9D9" fill-opacity="0.3"/>
  <path d="M1041.1 1659.85L1041.1 1370.9" stroke="#3D7579" stroke-width="12"/>
  <path d="M2149.36 2020.04L2149.36 1683.06" stroke="#3D7579" stroke-width="12"/>
  <path fill-rule="evenodd" clip-rule="evenodd" d="M1557.66 1429.46L1557.66 1639.18L1808.07 1639.18C1809.36 1639.21 1810.64 1639.23 1811.94 1639.23C1881.37 1639.23 1937.66 1592.27 1937.66 1534.34C1937.66 1476.42 1881.37 1429.46 1811.94 1429.46C1811.03 1429.46 1810.13 1429.46 1809.23 1429.48L1809.23 1429.46L1557.66 1429.46Z" fill="#3D7579"/>
  <path d="M1781.98 1518.49L1778.95 1522.98C1777.71 1521.27 1776.13 1520.25 1773.97 1520.25C1771.82 1520.25 1769.93 1521.88 1769.93 1523.99C1769.93 1525.89 1771.51 1527.07 1774.55 1528.26C1777.01 1529.23 1778.81 1530.2 1780.13 1531.34C1782.29 1533.19 1783.08 1535.57 1783.08 1538.38C1783.08 1545.11 1778.86 1549.73 1772.17 1549.73C1767.59 1549.73 1764.25 1547.14 1761.96 1543.27L1766.14 1539.17C1767.11 1541.99 1769.62 1544.01 1772.13 1544.01C1774.55 1544.01 1776.39 1542.03 1776.39 1539.22C1776.39 1536.8 1774.85 1535.43 1771.86 1534.29C1766.05 1532.09 1763.24 1529.8 1763.24 1524.74C1763.24 1519.29 1767.29 1514.8 1772.92 1514.8C1776.13 1514.8 1780.13 1516.43 1781.98 1518.49ZM1787.61 1519.95H1793.77V1527.25H1797.55V1532.44H1793.77V1548.85H1787.61V1532.44H1785.5V1527.25H1787.61V1519.95ZM1813.83 1529.27V1527.25H1819.9V1548.85H1813.83V1546.87H1813.74C1812.38 1548.59 1810.13 1549.56 1807.89 1549.56C1802.04 1549.56 1797.94 1544.41 1797.94 1537.94C1797.94 1531.87 1801.9 1526.55 1807.8 1526.55C1810.04 1526.55 1812.33 1527.51 1813.83 1529.27ZM1809.3 1544.1C1812.24 1544.1 1814.44 1541.24 1814.44 1538.03C1814.44 1534.91 1812.33 1532 1809.25 1532C1806.3 1532 1804.19 1534.91 1804.19 1538.03C1804.19 1541.2 1806.35 1544.1 1809.3 1544.1ZM1831.95 1518.19C1831.95 1520.25 1830.32 1521.84 1828.3 1521.84C1826.23 1521.84 1824.65 1520.25 1824.65 1518.19C1824.65 1516.21 1826.23 1514.53 1828.3 1514.53C1830.37 1514.53 1831.95 1516.21 1831.95 1518.19ZM1825.22 1527.25H1831.38V1548.85H1825.22V1527.25ZM1850.76 1527.07L1850.01 1532.79C1849.26 1532.27 1848.38 1532 1847.46 1532C1844.34 1532 1842.75 1533.94 1842.75 1538.91V1548.85H1836.59V1527.25H1842.75V1529.49H1842.84C1844.07 1527.6 1845.92 1526.55 1848.21 1526.55C1849.09 1526.55 1849.88 1526.77 1850.76 1527.07ZM1867.03 1528.79L1864.39 1532.35C1863.51 1531.52 1862.36 1530.86 1861.13 1530.86C1860.12 1530.86 1859.11 1531.65 1859.11 1532.71C1859.11 1533.81 1860.12 1534.33 1862.1 1535.13C1863.11 1535.52 1864.03 1535.87 1864.74 1536.27C1866.98 1537.55 1867.99 1539.26 1867.99 1541.9C1867.99 1546.48 1864.39 1549.56 1859.59 1549.56C1856.64 1549.56 1853.87 1548.24 1851.98 1545.95L1854.79 1542.3C1856.03 1543.66 1857.57 1544.81 1859.37 1544.81C1860.73 1544.81 1861.83 1543.88 1861.83 1542.47C1861.83 1541.15 1860.82 1540.49 1858.75 1539.7C1857.04 1539.04 1855.72 1538.47 1854.84 1537.63C1853.65 1536.53 1853.21 1535.17 1853.21 1533.54C1853.21 1529.49 1856.07 1526.55 1860.07 1526.55C1862.36 1526.55 1865.27 1527.25 1867.03 1528.79Z" fill="white"/>
  <rect x="1578" y="1615.46" width="162" height="22" transform="matrix(0, -1, 1, 0, -37.4599609375, 3193.4599609375)" fill="white"/>
  <rect x="1606" y="1615.46" width="162" height="22" transform="matrix(0, -1, 1, 0, -9.4599609375, 3221.4599609375)" fill="white"/>
  <rect x="1633" y="1615.46" width="162" height="23" transform="matrix(0, -1, 1, 0, 17.5400390625, 3248.4599609375)" fill="white"/>
  <rect x="1661" y="1615.46" width="162" height="22" transform="matrix(0, -1, 1, 0, 45.5400390625, 3276.4599609375)" fill="white"/>
  <rect x="1688" y="1615.46" width="162" height="23" transform="matrix(0, -1, 1, 0, 72.5400390625, 3303.4599609375)" fill="white"/>
  <rect x="1035.7" y="1244.88" width="377.112" height="1237.15" transform="matrix(0, -1, 1, 0, -209.18005371093773, 2280.5799560546875)" fill="white"/>
  <rect x="2014.98" y="1236.51" width="358.689" height="249.497" transform="matrix(0, -1, 1, 0, 778.469970703125, 3251.489990234375)" fill="#0D5257"/>
  <path d="M2060.31 1098.6H2089.18V1106.79H2079.45V1146.85H2070.04V1106.79H2060.31V1098.6ZM2117.66 1131.17C2117.66 1140.97 2110.88 1147.88 2101.15 1147.88C2091.42 1147.88 2084.64 1140.97 2084.64 1131.17C2084.64 1121.32 2091.42 1114.41 2101.15 1114.41C2111 1114.41 2117.66 1121.51 2117.66 1131.17ZM2101.15 1139.94C2105.56 1139.94 2108.57 1135.65 2108.57 1131.17C2108.57 1126.63 2105.63 1122.34 2101.08 1122.34C2096.86 1122.34 2093.72 1126.5 2093.72 1131.17C2093.72 1135.65 2096.8 1139.94 2101.15 1139.94ZM2132.91 1102.25C2132.91 1105.25 2130.55 1107.56 2127.6 1107.56C2124.59 1107.56 2122.29 1105.25 2122.29 1102.25C2122.29 1099.37 2124.59 1096.93 2127.6 1096.93C2130.61 1096.93 2132.91 1099.37 2132.91 1102.25ZM2123.12 1115.43H2132.08V1146.85H2123.12V1115.43ZM2139.66 1092.58H2148.62V1146.85H2139.66V1092.58ZM2183.68 1132.58H2163.01C2163.07 1137.96 2165.37 1141.03 2169.21 1141.03C2172.22 1141.03 2174.01 1139.24 2175.23 1136.74L2183.49 1138.09C2181.25 1144.42 2175.87 1147.88 2169.21 1147.88C2159.61 1147.88 2153.53 1141.03 2153.53 1131.43C2153.53 1121.45 2158.97 1114.41 2168.77 1114.41C2178.11 1114.41 2183.68 1120.68 2183.68 1131.81V1132.58ZM2163.26 1127.01H2175.23C2174.65 1123.11 2172.22 1120.68 2169.21 1120.68C2166.4 1120.68 2163.9 1122.73 2163.26 1127.01ZM2189.73 1104.81H2198.69V1115.43H2204.19V1122.98H2198.69V1146.85H2189.73V1122.98H2186.65V1115.43H2189.73V1104.81ZM2226.97 1117.67L2223.13 1122.85C2221.85 1121.64 2220.18 1120.68 2218.39 1120.68C2216.92 1120.68 2215.45 1121.83 2215.45 1123.37C2215.45 1124.97 2216.92 1125.73 2219.8 1126.89C2221.27 1127.46 2222.62 1127.97 2223.64 1128.55C2226.9 1130.41 2228.38 1132.9 2228.38 1136.74C2228.38 1143.4 2223.13 1147.88 2216.15 1147.88C2211.86 1147.88 2207.83 1145.96 2205.08 1142.63L2209.18 1137.32C2210.97 1139.3 2213.21 1140.97 2215.83 1140.97C2217.82 1140.97 2219.42 1139.62 2219.42 1137.57C2219.42 1135.65 2217.94 1134.69 2214.94 1133.54C2212.44 1132.58 2210.52 1131.75 2209.24 1130.53C2207.51 1128.93 2206.87 1126.95 2206.87 1124.58C2206.87 1118.69 2211.03 1114.41 2216.86 1114.41C2220.18 1114.41 2224.41 1115.43 2226.97 1117.67Z" fill="white"/>
  <rect x="1460.12" y="1236.51" width="358.689" height="172.005" transform="matrix(0, -1, 1, 0, 223.6099853515625, 2696.6300048828125)" fill="#0D5257"/>
  <path d="M2179.2 1313.57L2179.2 1253.88L2119.52 1253.88" stroke="#D9D9D9" stroke-width="3"/>
  <path d="M2179.2 1313.57C2143.56 1304.17 2130.19 1291.5 2119.52 1253.88L2179.2 1253.88L2179.2 1313.57Z" fill="#D9D9D9" fill-opacity="0.3"/>
  <path d="M1427.18 1304.57L1427.18 1244.88L1367.49 1244.88" stroke="#D9D9D9" stroke-width="3"/>
  <path d="M1427.18 1304.57C1391.53 1295.17 1378.16 1282.5 1367.49 1244.88L1427.18 1244.88L1427.18 1304.57Z" fill="#D9D9D9" fill-opacity="0.3"/>
  <path d="M1367.49 867.767L1427.18 867.767L1427.18 808.078" stroke="#D9D9D9" stroke-width="3"/>
  <path d="M1367.49 867.766C1376.89 832.119 1389.56 818.748 1427.18 808.078L1427.18 867.766L1367.49 867.766Z" fill="#D9D9D9" fill-opacity="0.3"/>
  <path d="M2119.52 861.767L2179.2 861.767L2179.2 802.078" stroke="#D9D9D9" stroke-width="3"/>
  <path d="M2119.52 861.766C2128.91 826.119 2141.58 812.748 2179.2 802.078L2179.2 861.766L2119.52 861.766Z" fill="#D9D9D9" fill-opacity="0.3"/>
  <path d="M2557.71 1183.81L2557.71 1124.12L2498.02 1124.12" stroke="#D9D9D9" stroke-width="3"/>
  <path d="M2557.71 1183.81C2522.06 1174.41 2508.69 1161.74 2498.02 1124.12L2557.71 1124.12L2557.71 1183.81Z" fill="#D9D9D9" fill-opacity="0.3"/>
  <path d="M2557.71 996.024L2557.71 936.336L2498.02 936.336" stroke="#D9D9D9" stroke-width="3"/>
  <path d="M2557.71 996.024C2522.06 986.628 2508.69 973.955 2498.02 936.335L2557.71 936.335L2557.71 996.024Z" fill="#D9D9D9" fill-opacity="0.3"/>
  <path d="M2848.82 878.837L2908.5 878.837L2908.5 819.148" stroke="#D9D9D9" stroke-width="3"/>
  <path d="M2848.82 878.837C2858.21 843.189 2870.89 829.819 2908.5 819.148L2908.5 878.837L2848.82 878.837Z" fill="#D9D9D9" fill-opacity="0.3"/>
  <path d="M3280.58 1025.71L3280.58 1085.4L3340.27 1085.4" stroke="#D9D9D9" stroke-width="3"/>
  <path d="M3280.58 1025.71C3316.23 1035.1 3329.6 1047.78 3340.27 1085.4L3280.58 1085.4L3280.58 1025.71Z" fill="#D9D9D9" fill-opacity="0.3"/>
  <path d="M2600.61 1645.67L2658.26 1630.22L2642.81 1572.57" stroke="#D9D9D9" stroke-width="3"/>
  <path d="M2600.61 1645.67C2600.46 1608.81 2609.24 1592.61 2642.81 1572.57L2658.26 1630.22L2600.61 1645.67Z" fill="#D9D9D9" fill-opacity="0.3"/>
  <path d="M2848.98 1529.16L2863.48 1587.06L2921.38 1572.57" stroke="#D9D9D9" stroke-width="3"/>
  <path d="M2848.98 1529.16C2885.84 1529.62 2901.89 1538.67 2921.38 1572.57L2863.48 1587.06L2848.98 1529.16Z" fill="#D9D9D9" fill-opacity="0.3"/>
  <rect x="2371.85" y="1239.57" width="99" height="171" rx="10" transform="matrix(-1, 0, 0, -1, 4743.7001953125, 2479.139892578125)" fill="#3D7579"/>
  <rect x="2371.85" y="1051.57" width="99" height="171" rx="10" transform="matrix(-1, 0, 0, -1, 4743.7001953125, 2103.139892578125)" fill="#3D7579"/>
  <path d="M1513.54 1181.12L1513.54 1156.16L1521.74 1156.16L1521.74 1171.72L1532.36 1171.72L1532.36 1156.74L1540.55 1156.74L1540.55 1171.72L1553.61 1171.72L1553.61 1156.16L1561.8 1156.16L1561.8 1181.12L1513.54 1181.12ZM1507.53 1149.33L1507.53 1140.37L1561.8 1140.37L1561.8 1149.33L1507.53 1149.33ZM1547.53 1105.31L1547.53 1125.99C1552.9 1125.92 1555.98 1123.62 1555.98 1119.78C1555.98 1116.77 1554.18 1114.98 1551.69 1113.76L1553.03 1105.51C1559.37 1107.75 1562.82 1113.12 1562.82 1119.78C1562.82 1129.38 1555.98 1135.46 1546.38 1135.46C1536.39 1135.46 1529.35 1130.02 1529.35 1120.23C1529.35 1110.88 1535.62 1105.31 1546.76 1105.31L1547.53 1105.31ZM1541.96 1125.73L1541.96 1113.76C1538.06 1114.34 1535.62 1116.77 1535.62 1119.78C1535.62 1122.59 1537.67 1125.09 1541.96 1125.73ZM1530.38 1104.71L1530.38 1094.85L1548.1 1087.49L1530.38 1081.03L1530.38 1071.24L1562.44 1085.7L1562.44 1090.31L1530.38 1104.71ZM1533.32 1047.44L1530.38 1047.44L1530.38 1038.61L1561.8 1038.61L1561.8 1047.44L1558.92 1047.44L1558.92 1047.57C1561.42 1049.55 1562.82 1052.82 1562.82 1056.08C1562.82 1064.59 1555.34 1070.55 1545.93 1070.55C1537.1 1070.55 1529.35 1064.79 1529.35 1056.21C1529.35 1052.95 1530.76 1049.62 1533.32 1047.44ZM1554.89 1054.03C1554.89 1049.75 1550.73 1046.55 1546.06 1046.55C1541.51 1046.55 1537.29 1049.62 1537.29 1054.1C1537.29 1058.39 1541.51 1061.46 1546.06 1061.46C1550.66 1061.46 1554.89 1058.32 1554.89 1054.03ZM1519.75 1030.23L1519.75 1021.27L1530.38 1021.27L1530.38 1015.77L1537.93 1015.77L1537.93 1021.27L1561.8 1021.27L1561.8 1030.23L1537.93 1030.23L1537.93 1033.3L1530.38 1033.3L1530.38 1030.23L1519.75 1030.23ZM1546.12 982.108C1555.91 982.108 1562.82 988.892 1562.82 998.62C1562.82 1008.35 1555.91 1015.13 1546.12 1015.13C1536.26 1015.13 1529.35 1008.35 1529.35 998.62C1529.35 988.764 1536.46 982.108 1546.12 982.108ZM1554.89 998.62C1554.89 994.204 1550.6 991.196 1546.12 991.196C1541.58 991.196 1537.29 994.14 1537.29 998.684C1537.29 1002.91 1541.45 1006.04 1546.12 1006.04C1550.6 1006.04 1554.89 1002.97 1554.89 998.62ZM1530.12 956.485L1538.44 957.573C1537.67 958.661 1537.29 959.941 1537.29 961.285C1537.29 965.829 1540.1 968.133 1547.34 968.133L1561.8 968.133L1561.8 977.093L1530.38 977.093L1530.38 968.133L1533.64 968.133L1533.64 968.005C1530.89 966.213 1529.35 963.525 1529.35 960.197C1529.35 958.917 1529.67 957.765 1530.12 956.485ZM1532.62 932.825L1537.8 936.665C1536.58 937.945 1535.62 939.609 1535.62 941.401C1535.62 942.873 1536.78 944.345 1538.31 944.345C1539.91 944.345 1540.68 942.873 1541.83 939.993C1542.41 938.521 1542.92 937.177 1543.5 936.153C1545.35 932.889 1547.85 931.417 1551.69 931.417C1558.34 931.417 1562.82 936.665 1562.82 943.641C1562.82 947.929 1560.9 951.961 1557.58 954.713L1552.26 950.617C1554.25 948.825 1555.91 946.585 1555.91 943.961C1555.91 941.977 1554.57 940.377 1552.52 940.377C1550.6 940.377 1549.64 941.849 1548.49 944.857C1547.53 947.353 1546.7 949.273 1545.48 950.553C1543.88 952.281 1541.9 952.921 1539.53 952.921C1533.64 952.921 1529.35 948.761 1529.35 942.937C1529.35 939.609 1530.38 935.385 1532.62 932.825Z" fill="white"/>
  <path d="M1106.76 1022.47H1120.87V1082.57H1140.84V1094.85H1106.76V1022.47ZM1188.06 1073.45H1157.05C1157.14 1081.51 1160.6 1086.12 1166.36 1086.12C1170.87 1086.12 1173.56 1083.43 1175.38 1079.69L1187.77 1081.7C1184.41 1091.21 1176.34 1096.39 1166.36 1096.39C1151.96 1096.39 1142.84 1086.12 1142.84 1071.72C1142.84 1056.74 1151 1046.18 1165.69 1046.18C1179.7 1046.18 1188.06 1055.59 1188.06 1072.29V1073.45ZM1157.43 1065.09H1175.38C1174.52 1059.24 1170.87 1055.59 1166.36 1055.59C1162.14 1055.59 1158.39 1058.66 1157.43 1065.09ZM1188.97 1047.72H1203.75L1214.79 1074.31L1224.49 1047.72H1239.17L1217.48 1095.81H1210.57L1188.97 1047.72ZM1285.43 1073.45H1254.42C1254.51 1081.51 1257.97 1086.12 1263.73 1086.12C1268.24 1086.12 1270.93 1083.43 1272.75 1079.69L1285.14 1081.7C1281.78 1091.21 1273.71 1096.39 1263.73 1096.39C1249.33 1096.39 1240.21 1086.12 1240.21 1071.72C1240.21 1056.74 1248.37 1046.18 1263.06 1046.18C1277.07 1046.18 1285.43 1055.59 1285.43 1072.29V1073.45ZM1254.8 1065.09H1272.75C1271.89 1059.24 1268.24 1055.59 1263.73 1055.59C1259.51 1055.59 1255.76 1058.66 1254.8 1065.09ZM1292.86 1013.45H1306.3V1094.85H1292.86V1013.45ZM1389.85 1041C1389.85 1046.66 1387.84 1052.71 1382.94 1056.07C1388.8 1058.57 1392.25 1066.05 1392.25 1073.73C1392.25 1087.65 1382.37 1096.77 1368.16 1096.77C1355.2 1096.77 1345.02 1087.27 1344.16 1073.93H1358.37C1358.65 1079.69 1362.49 1084.49 1368.73 1084.49C1374.49 1084.49 1378.43 1079.3 1378.43 1072.87C1378.43 1068.36 1376.22 1064.42 1373.34 1062.6C1371.81 1061.64 1370.46 1061.35 1368.83 1061.35C1368.06 1061.35 1366.43 1061.45 1365.66 1061.54V1051.46H1367.01C1373.92 1051.46 1376.41 1046.85 1376.41 1041.48C1376.41 1036.2 1373.05 1032.26 1368.16 1032.26C1363.93 1032.26 1360.67 1035.81 1360.29 1041.38H1346.85C1348.29 1028.04 1356.73 1020.55 1369.02 1020.55C1381.79 1020.55 1389.85 1028.9 1389.85 1041Z" fill="#0D5257"/>
  <path d="M1152.56 1528.34C1149.97 1521.39 1141.94 1518.92 1141.94 1518.92L1141.94 1533.28C1139.35 1534.74 1136.87 1536.37 1134.55 1538.2L1133.8 1538.79L1133.8 1558.51L1134.55 1559.1C1136.99 1561.02 1139.63 1562.71 1142.37 1564.23L1142.37 1576.19C1142.37 1577.29 1142.98 1578.28 1143.96 1578.78C1160.61 1587.31 1181.48 1589.69 1195.93 1590.17L1195.93 1584.36C1182.63 1583.91 1163.65 1581.81 1148.19 1574.38L1148.19 1567.14C1159.54 1572.19 1172.05 1574.59 1181.83 1575.68C1196.86 1577.38 1208.5 1576.55 1208.99 1576.52L1210.82 1576.38L1210.82 1520.92L1208.99 1520.79C1208.5 1520.75 1196.86 1519.92 1181.83 1521.61C1173.29 1522.58 1162.67 1524.51 1152.56 1528.34ZM1205 1526.43L1205 1570.87C1196.49 1571.09 1174.96 1570.84 1156.02 1564.05L1156.02 1533.25C1174.97 1526.46 1196.49 1526.21 1205 1526.43Z" fill="#0D5257"/>
  <path d="M1180.75 1473.5L1180.75 1477.45L1177 1477.45L1177 1513.52L1201.8 1513.52C1206.76 1513.52 1210.82 1509.46 1210.82 1504.5L1210.82 1486.47C1210.82 1481.63 1206.96 1477.69 1202.17 1477.49L1202.17 1473.5C1202.17 1469.46 1198.89 1466.17 1194.85 1466.17L1188.08 1466.17C1184.04 1466.18 1180.75 1469.46 1180.75 1473.5ZM1194.85 1471.81C1195.76 1471.81 1196.54 1472.59 1196.54 1473.5L1196.54 1477.45L1186.39 1477.45L1186.39 1473.5C1186.39 1472.59 1187.17 1471.81 1188.08 1471.81L1194.85 1471.81Z" fill="#0D5257"/>
  <path d="M2111.61 979.045C2116.9 979.045 2121.21 974.739 2121.21 969.45C2121.21 964.16 2116.9 959.854 2111.61 959.854C2106.32 959.854 2102.02 964.16 2102.02 969.45C2102.02 974.739 2106.32 979.045 2111.61 979.045ZM2111.61 964.137C2114.53 964.137 2116.94 966.519 2116.94 969.45C2116.94 972.372 2114.56 974.777 2111.61 974.777C2108.67 974.777 2106.28 972.395 2106.28 969.45C2106.28 966.504 2108.67 964.137 2111.61 964.137Z" fill="white"/>
  <path d="M2164.77 978.911C2170.03 978.911 2174.29 974.643 2174.29 969.391C2174.29 964.139 2170.03 959.871 2164.77 959.871C2159.52 959.871 2155.25 964.139 2155.25 969.391C2155.25 974.643 2159.52 978.911 2164.77 978.911ZM2164.77 964.139C2167.66 964.139 2170.03 966.505 2170.03 969.391C2170.03 972.276 2167.66 974.643 2164.77 974.643C2161.89 974.643 2159.52 972.276 2159.52 969.391C2159.52 966.505 2161.89 964.139 2164.77 964.139Z" fill="white"/>
  <path d="M2184.67 990.624C2183.19 984.794 2177.98 980.698 2171.96 980.698H2158.63C2152.61 980.698 2147.4 984.778 2145.92 990.624L2141.3 1009.01C2140.84 1010.9 2141.24 1012.86 2142.44 1014.4C2143.63 1015.94 2145.46 1016.83 2147.4 1016.83C2147.57 1016.83 2147.73 1016.8 2147.9 1016.79L2145.74 1025.42C2145.4 1026.75 2145.71 1028.1 2146.51 1029.16C2147.34 1030.23 2148.61 1030.85 2149.95 1030.85H2154.32V1056.64C2154.32 1060.12 2157.14 1062.95 2160.63 1062.95C2162.22 1062.95 2163.69 1062.34 2164.82 1061.36C2165.93 1062.35 2167.38 1062.95 2169 1062.95C2172.48 1062.95 2175.33 1060.13 2175.33 1056.64V1030.85H2180.71C2182.06 1030.85 2183.33 1030.23 2184.16 1029.16C2184.97 1028.08 2185.27 1026.73 2184.92 1025.42L2182.77 1016.79C2182.94 1016.81 2183.1 1016.83 2183.27 1016.83C2185.21 1016.83 2187.04 1015.94 2188.23 1014.4C2189.42 1012.86 2189.82 1010.9 2189.36 1009.01L2184.75 990.624H2184.67ZM2162.63 1056.63C2162.63 1057.76 2161.71 1058.66 2160.58 1058.66C2159.44 1058.66 2158.54 1057.76 2158.54 1056.63V1030.83H2162.62V1056.63H2162.63ZM2170.98 1056.63C2170.98 1057.76 2170.06 1058.66 2168.92 1058.66C2167.79 1058.66 2166.89 1057.76 2166.89 1056.63V1030.83H2170.97V1056.63H2170.98ZM2184.77 1011.77C2184.39 1012.27 2183.81 1012.54 2183.19 1012.54C2182.27 1012.54 2181.48 1011.92 2181.25 1011.03L2176.55 992.3C2176.24 991.142 2175.09 990.451 2173.94 990.744C2172.8 991.052 2172.09 992.21 2172.4 993.359L2180.65 1026.58L2149.85 1026.47L2153.44 1012.12L2158.18 993.338C2158.49 992.181 2157.77 991.031 2156.64 990.723C2155.48 990.452 2154.33 991.128 2154.02 992.278L2149.33 1011.01C2149.09 1011.91 2148.3 1012.51 2147.38 1012.51C2146.76 1012.51 2146.19 1012.24 2145.8 1011.75C2145.42 1011.24 2145.28 1010.64 2145.43 1010.03L2150.05 991.647C2151.03 987.725 2154.55 984.952 2158.63 984.952H2171.96C2176.02 984.952 2179.54 987.702 2180.54 991.647L2185.15 1010.03C2185.3 1010.63 2185.18 1011.24 2184.79 1011.75L2184.77 1011.77Z" fill="white"/>
  <path d="M2121.98 981.043H2101.27C2095.69 981.043 2091.14 985.582 2091.14 991.12V1014.93C2091.14 1018.32 2093.88 1021.05 2097.26 1021.05C2097.91 1021.05 2098.53 1020.91 2099.12 1020.72V1055.59C2099.12 1059.63 2102.39 1062.9 2106.44 1062.9C2108.47 1062.9 2110.28 1062.09 2111.61 1060.77C2112.94 1062.1 2114.77 1062.9 2116.81 1062.9C2120.83 1062.9 2124.12 1059.63 2124.12 1055.59V1020.72C2124.69 1020.91 2125.31 1021.05 2125.96 1021.05C2129.35 1021.05 2132.08 1018.31 2132.08 1014.93V991.12C2132.08 985.559 2127.54 981.043 2122 981.043H2121.98ZM2127.79 1014.94C2127.79 1015.94 2126.98 1016.79 2125.94 1016.79C2124.91 1016.79 2124.09 1015.96 2124.09 1014.94V995.013C2124.09 993.84 2123.13 992.879 2121.96 992.879C2120.79 992.879 2119.83 993.84 2119.83 995.013V1055.61C2119.83 1057.28 2118.46 1058.64 2116.79 1058.64C2115.12 1058.64 2113.73 1057.27 2113.73 1055.61V1014.77C2113.73 1013.57 2112.77 1012.63 2111.6 1012.63C2110.43 1012.63 2109.46 1013.57 2109.46 1014.77V1055.61C2109.46 1057.28 2108.1 1058.64 2106.43 1058.64C2104.75 1058.64 2103.39 1057.27 2103.39 1055.61V995.013C2103.39 993.84 2102.43 992.879 2101.26 992.879C2100.09 992.879 2099.13 993.84 2099.13 995.013V1014.94C2099.13 1015.94 2098.3 1016.79 2097.26 1016.79C2096.22 1016.79 2095.41 1015.96 2095.41 1014.94V991.127C2095.41 987.911 2098.03 985.319 2101.24 985.319H2121.96C2125.18 985.319 2127.77 987.934 2127.77 991.127V1014.94H2127.79Z" fill="white"/>
  <path d="M3570.3 1677.16C3563.86 1692 3553.53 1704.82 3540.4 1714.27C3527.27 1723.72 3511.83 1729.44 3495.71 1730.83C3479.59 1732.21 3463.4 1729.22 3448.85 1722.16C3434.3 1715.1 3421.92 1704.23 3413.04 1690.71C3404.16 1677.19 3399.09 1661.52 3398.39 1645.36C3397.68 1629.2 3401.36 1613.15 3409.03 1598.91C3416.7 1584.67 3428.08 1572.76 3441.96 1564.46C3455.84 1556.16 3471.71 1551.76 3487.89 1551.74L3487.95 1594.75C3479.53 1594.76 3471.27 1597.05 3464.04 1601.37C3456.81 1605.7 3450.89 1611.89 3446.9 1619.31C3442.91 1626.72 3440.99 1635.07 3441.36 1643.49C3441.73 1651.9 3444.36 1660.05 3448.99 1667.09C3453.61 1674.13 3460.05 1679.78 3467.63 1683.46C3475.2 1687.13 3483.63 1688.69 3492.02 1687.97C3500.41 1687.25 3508.44 1684.27 3515.28 1679.35C3522.11 1674.43 3527.49 1667.76 3530.84 1660.04L3570.3 1677.16Z" fill="#3D7579"/>
  <path d="M3487.51 1486.51C3471.34 1486.6 3455.44 1482.32 3441.49 1474.12C3427.55 1465.92 3416.08 1454.1 3408.31 1439.92C3400.53 1425.73 3396.74 1409.71 3397.33 1393.54C3397.91 1377.38 3402.86 1361.67 3411.64 1348.09C3420.43 1334.5 3432.72 1323.55 3447.22 1316.38C3461.72 1309.21 3477.89 1306.1 3494.02 1307.37C3510.14 1308.64 3525.63 1314.24 3538.83 1323.59C3552.03 1332.94 3562.46 1345.69 3569 1360.48L3529.67 1377.89C3526.26 1370.19 3520.84 1363.56 3513.97 1358.69C3507.09 1353.83 3499.04 1350.91 3490.64 1350.25C3482.25 1349.59 3473.83 1351.21 3466.28 1354.94C3458.74 1358.67 3452.34 1364.37 3447.77 1371.44C3443.19 1378.52 3440.62 1386.69 3440.31 1395.1C3440.01 1403.52 3441.98 1411.86 3446.03 1419.24C3450.08 1426.63 3456.05 1432.78 3463.3 1437.05C3470.56 1441.32 3478.84 1443.54 3487.26 1443.49L3487.51 1486.51Z" fill="#3D7579"/>
  <path fill-rule="evenodd" clip-rule="evenodd" d="M46.4699 936.263C46.2419 952.438 50.3917 968.373 58.4797 982.382L95.7319 960.875C91.522 953.583 89.362 945.288 89.4806 936.869C89.5993 928.45 91.9921 920.22 96.4058 913.05C100.819 905.88 107.09 900.036 114.553 896.138C122.016 892.24 130.394 890.433 138.801 890.907C147.207 891.381 155.329 894.12 162.306 898.833C169.284 903.545 174.857 910.057 178.436 917.678C182.015 925.3 183.467 933.747 182.638 942.126C181.809 950.504 178.729 958.503 173.726 965.275L208.322 990.837C217.935 977.826 223.851 962.459 225.444 946.362C227.037 930.264 224.248 914.035 217.371 899.393C210.495 884.751 199.788 872.241 186.383 863.187C172.978 854.133 157.375 848.872 141.224 847.96C125.074 847.049 108.977 850.522 94.6389 858.01C80.3007 865.499 68.2541 876.726 59.7745 890.501C51.2949 904.277 46.6978 920.089 46.4699 936.263ZM97.1416 683.099C94.0756 687.693 95.3139 693.902 99.9076 696.968L343.442 859.517C348.036 862.583 354.245 861.344 357.311 856.751L462.588 699.022C465.654 694.428 464.416 688.219 459.822 685.153L216.288 522.604C211.694 519.538 205.485 520.777 202.419 525.37L97.1416 683.099ZM220.349 518.388C215.755 515.322 214.517 509.113 217.583 504.519L322.86 346.79C325.926 342.197 332.136 340.958 336.729 344.024L580.264 506.573C584.857 509.639 586.096 515.848 583.03 520.442L477.753 678.171C474.687 682.764 468.477 684.003 463.884 680.937L220.349 518.388ZM1108.03 1653.78L1108.03 1395.78L1297.03 1395.78L1297.03 1653.78L1108.03 1653.78ZM1758 1891.46C1752.48 1891.46 1748 1886.98 1748 1881.46L1748 1756.46C1748 1750.93 1752.48 1746.46 1758 1746.46L2000 1746.46C2005.52 1746.46 2010 1750.93 2010 1756.46L2010 1881.46C2010 1886.98 2005.52 1891.46 2000 1891.46L1758 1891.46ZM3492.75 1176.33C3492.75 1181.85 3497.23 1186.33 3502.75 1186.33L3706.75 1186.33C3712.27 1186.33 3716.75 1181.85 3716.75 1176.33L3716.75 986.332C3716.75 980.809 3712.27 976.332 3706.75 976.332L3502.75 976.332C3497.23 976.332 3492.75 980.809 3492.75 986.332L3492.75 1176.33ZM3502.75 953.332C3497.23 953.332 3492.75 948.855 3492.75 943.332L3492.75 754.332C3492.75 748.809 3497.23 744.332 3502.75 744.332L3706.75 744.332C3712.27 744.332 3716.75 748.809 3716.75 754.332L3716.75 943.332C3716.75 948.855 3712.27 953.332 3706.75 953.332L3502.75 953.332ZM3483.4 686.488C3488.93 686.488 3493.4 682.011 3493.4 676.488L3493.4 447.959C3493.4 442.436 3488.93 437.959 3483.4 437.959L3324.5 437.959C3318.98 437.959 3314.5 442.436 3314.5 447.959L3314.5 676.488C3314.5 682.011 3318.98 686.488 3324.5 686.488L3483.4 686.488ZM3280.04 657.958C3280.04 663.481 3275.56 667.958 3270.04 667.958L3111.04 667.958C3105.51 667.958 3101.04 663.481 3101.04 657.958L3101.04 447.958C3101.04 442.435 3105.51 437.958 3111.04 437.958L3270.04 437.958C3275.56 437.958 3280.04 442.435 3280.04 447.958L3280.04 657.958ZM3073.04 667.958C3078.56 667.958 3083.04 663.481 3083.04 657.958L3083.04 447.958C3083.04 442.435 3078.56 437.958 3073.04 437.958L2914.04 437.958C2908.51 437.958 2904.04 442.435 2904.04 447.958L2904.04 657.958C2904.04 663.481 2908.51 667.958 2914.04 667.958L3073.04 667.958ZM2887.04 657.958C2887.04 663.481 2882.56 667.958 2877.04 667.958L2718.04 667.958C2712.51 667.958 2708.04 663.481 2708.04 657.958L2708.04 447.958C2708.04 442.435 2712.51 437.958 2718.04 437.958L2877.04 437.958C2882.56 437.958 2887.04 442.435 2887.04 447.958L2887.04 657.958ZM2195 667.456C2200.52 667.456 2205 662.979 2205 657.456L2205 465.456C2205 459.933 2200.52 455.456 2195 455.456L2036 455.456C2030.48 455.456 2026 459.933 2026 465.456L2026 657.456C2026 662.979 2030.48 667.456 2036 667.456L2195 667.456ZM1905.48 659.134C1903.57 664.316 1897.82 666.968 1892.64 665.057L1743.55 610.086C1738.36 608.175 1735.71 602.426 1737.62 597.244L1809.8 401.479C1811.71 396.297 1817.46 393.646 1822.65 395.556L1971.74 450.527C1976.92 452.438 1979.57 458.188 1977.66 463.369L1905.48 659.134ZM1686.42 595.454C1691.6 597.365 1697.35 594.713 1699.26 589.531L1774.28 386.072C1776.19 380.891 1773.54 375.141 1768.35 373.23L1619.26 318.259C1614.08 316.349 1608.33 319 1606.42 324.182L1531.4 527.641C1529.49 532.823 1532.15 538.572 1537.33 540.483L1686.42 595.454ZM1346.32 460.239C1344.4 465.421 1338.66 468.073 1333.47 466.162L998.658 342.713C993.477 340.802 990.825 335.053 992.735 329.871L1068.57 124.192C1070.48 119.01 1076.23 116.359 1081.41 118.269L1416.23 241.719C1421.41 243.629 1424.06 249.379 1422.15 254.56L1346.32 460.239ZM657.532 1529.82C662.714 1531.73 668.463 1529.08 670.374 1523.9L769.389 1255.36C771.299 1250.17 768.647 1244.42 763.466 1242.51L428.651 1119.06C423.469 1117.15 417.719 1119.81 415.809 1124.99L316.794 1393.53C314.883 1398.71 317.535 1404.46 322.717 1406.37L657.532 1529.82ZM2284.27 1951.04C2278.86 1952.14 2273.58 1948.65 2272.48 1943.24L2234.57 1757.43C2233.47 1752.02 2236.96 1746.74 2242.37 1745.63L2583.45 1676.05C2588.86 1674.95 2594.15 1678.44 2595.25 1683.85L2633.15 1869.66C2634.26 1875.07 2630.77 1880.35 2625.36 1881.46L2284.27 1951.04ZM2894.72 1773.67C2900.1 1772.45 2903.47 1767.09 2902.25 1761.7L2831.58 1451.5C2830.35 1446.12 2824.99 1442.75 2819.61 1443.97L2634.71 1486.1C2629.32 1487.32 2625.95 1492.68 2627.18 1498.07L2697.85 1808.27C2699.08 1813.65 2704.44 1817.02 2709.82 1815.8L2894.72 1773.67ZM2760.6 1239.31C2766.12 1239.31 2770.6 1234.83 2770.6 1229.31L2770.6 1078.62C2770.6 1073.1 2766.12 1068.62 2760.6 1068.62L2570.96 1068.62C2565.44 1068.62 2560.96 1073.1 2560.96 1078.62L2560.96 1229.31C2560.96 1234.83 2565.44 1239.31 2570.96 1239.31L2760.6 1239.31ZM2991.48 1229.31C2991.48 1234.83 2987 1239.31 2981.48 1239.31L2791.84 1239.31C2786.32 1239.31 2781.84 1234.83 2781.84 1229.31L2781.84 890.838C2781.84 885.315 2786.32 880.838 2791.84 880.838L2981.48 880.838C2987 880.838 2991.48 885.315 2991.48 890.838L2991.48 1229.31ZM1097.71 862.366C1103.23 862.366 1107.71 857.889 1107.71 852.366L1107.71 666.083C1107.71 661.254 1104.26 657.114 1099.51 656.246L909.51 621.522C903.369 620.4 897.712 625.117 897.712 631.359L897.712 852.366C897.712 857.889 902.189 862.366 907.712 862.366L1097.71 862.366ZM1333.71 852.366C1333.71 857.889 1329.23 862.366 1323.71 862.366L1133.71 862.366C1128.19 862.366 1123.71 857.889 1123.71 852.366L1123.71 671.565C1123.71 665.254 1129.49 660.521 1135.67 661.759L1325.67 699.766C1330.35 700.701 1333.71 704.805 1333.71 709.572L1333.71 852.366ZM871.712 862.366C877.235 862.366 881.712 857.889 881.712 852.366L881.712 627.062C881.712 622.361 878.438 618.295 873.846 617.292L684.846 576.016C678.61 574.654 672.712 579.403 672.712 585.786L672.712 852.366C672.712 857.889 677.189 862.366 682.712 862.366L871.712 862.366ZM3272.85 1129.82C3272.85 1135.35 3268.37 1139.82 3262.85 1139.82L3073.21 1139.82C3067.69 1139.82 3063.21 1135.35 3063.21 1129.82L3063.21 990.321C3063.21 984.798 3067.69 980.321 3073.21 980.321L3262.85 980.321C3268.37 980.321 3272.85 984.798 3272.85 990.321L3272.85 1129.82ZM3262.85 1239.31C3268.37 1239.31 3272.85 1234.83 3272.85 1229.31L3272.85 1161.35C3272.85 1155.82 3268.37 1151.35 3262.85 1151.35L3073.21 1151.35C3067.69 1151.35 3063.21 1155.82 3063.21 1161.35L3063.21 1229.31C3063.21 1234.83 3067.69 1239.31 3073.21 1239.31L3262.85 1239.31ZM3272.85 963.442C3272.85 968.965 3268.37 973.442 3262.85 973.442L3073.21 973.442C3067.69 973.442 3063.21 968.965 3063.21 963.442L3063.21 895.482C3063.21 889.959 3067.69 885.482 3073.21 885.482L3262.85 885.482C3268.37 885.482 3272.85 889.959 3272.85 895.482L3272.85 963.442ZM2760.6 1051.52C2766.12 1051.52 2770.6 1047.04 2770.6 1041.52L2770.6 890.837C2770.6 885.314 2766.12 880.837 2760.6 880.837L2570.96 880.837C2565.44 880.837 2560.96 885.314 2560.96 890.837L2560.96 1041.52C2560.96 1047.04 2565.44 1051.52 2570.96 1051.52L2760.6 1051.52ZM3196.34 1755.54C3197.57 1760.93 3194.19 1766.29 3188.81 1767.51L3003.91 1809.64C2998.53 1810.86 2993.17 1807.49 2991.94 1802.11L2914.62 1462.7C2913.39 1457.31 2916.76 1451.95 2922.15 1450.73L3107.04 1408.6C3112.43 1407.38 3117.79 1410.75 3119.02 1416.13L3196.34 1755.54ZM1003.21 1556.22C1003.21 1529.77 981.771 1508.33 955.322 1508.33C928.872 1508.33 907.431 1529.77 907.431 1556.22C907.431 1582.67 928.872 1604.11 955.322 1604.11C981.771 1604.11 1003.21 1582.67 1003.21 1556.22ZM955.322 1379.69C981.771 1379.69 1003.21 1401.13 1003.21 1427.58C1003.21 1454.03 981.771 1475.47 955.322 1475.47C928.872 1475.47 907.431 1454.03 907.431 1427.58C907.431 1401.13 928.872 1379.69 955.322 1379.69ZM852.846 151.887C841.57 140.288 827.368 131.955 811.743 127.768L800.61 169.318C808.743 171.497 816.135 175.834 822.004 181.871C827.874 187.908 832.001 195.42 833.951 203.611C835.9 211.802 835.598 220.368 833.077 228.401C830.556 236.435 825.91 243.637 819.63 249.246C813.35 254.855 805.671 258.662 797.405 260.263C789.139 261.864 780.593 261.201 772.674 258.343C764.754 255.484 757.754 250.538 752.416 244.027C747.077 237.516 743.599 229.682 742.348 221.356L699.81 227.745C702.213 243.741 708.896 258.791 719.152 271.3C729.408 283.809 742.856 293.312 758.072 298.803C773.287 304.295 789.705 305.569 805.586 302.493C821.466 299.417 836.22 292.104 848.285 281.328C860.349 270.552 869.275 256.715 874.119 241.281C878.962 225.846 879.542 209.39 875.797 193.653C872.052 177.917 864.122 163.485 852.846 151.887ZM218.817 1100.9C234.442 1105.09 248.645 1113.42 259.92 1125.02C271.196 1136.62 279.127 1151.05 282.871 1166.79C286.616 1182.52 286.036 1198.98 281.193 1214.41C276.35 1229.85 267.423 1243.69 255.359 1254.46C243.294 1265.24 228.541 1272.55 212.66 1275.63C196.779 1278.7 180.362 1277.43 165.146 1271.94C149.93 1266.45 136.483 1256.94 126.226 1244.43C115.97 1231.92 109.287 1216.88 106.884 1200.88L149.422 1194.49C150.673 1202.82 154.151 1210.65 159.49 1217.16C164.828 1223.67 171.828 1228.62 179.748 1231.48C187.668 1234.33 196.213 1235 204.479 1233.4C212.745 1231.8 220.425 1227.99 226.704 1222.38C232.984 1216.77 237.63 1209.57 240.151 1201.54C242.672 1193.5 242.974 1184.94 241.025 1176.74C239.076 1168.55 234.948 1161.04 229.079 1155.01C223.209 1148.97 215.817 1144.63 207.684 1142.45L218.817 1100.9Z" fill="#3D7579"/>
  <path d="M1181.69 1603.55L1181.69 1596.05L1197.91 1596.05L1197.91 1595.95L1181.69 1584.06L1181.69 1574.83L1199.44 1589.42L1220.14 1574.02L1220.14 1583.66L1202.86 1595.95L1202.86 1596.05L1220.14 1596.05L1220.14 1603.55L1181.69 1603.55ZM1184.6 1563.33C1186.99 1563.33 1188.83 1565.21 1188.83 1567.56C1188.83 1569.96 1186.99 1571.79 1184.6 1571.79C1182.3 1571.79 1180.36 1569.96 1180.36 1567.56C1180.36 1565.16 1182.3 1563.33 1184.6 1563.33ZM1195.1 1571.13L1195.1 1563.99L1220.14 1563.99L1220.14 1571.13L1195.1 1571.13ZM1186.64 1557.08L1186.64 1549.94L1195.1 1549.94L1195.1 1545.56L1201.12 1545.56L1201.12 1549.94L1220.14 1549.94L1220.14 1557.08L1201.12 1557.08L1201.12 1559.53L1195.1 1559.53L1195.1 1557.08L1186.64 1557.08ZM1195.87 1526.28L1202.75 1526.28C1201.17 1527.86 1200.31 1529.34 1200.31 1531.54C1200.31 1535.46 1203.93 1537.86 1207.75 1537.86C1211.78 1537.86 1214.94 1535.31 1214.94 1531.28C1214.94 1529.29 1213.97 1527.56 1212.55 1526.28L1219.43 1526.28C1220.55 1528.32 1220.96 1530.26 1220.96 1532.45C1220.96 1539.8 1214.99 1545.1 1207.7 1545.1C1200.2 1545.1 1194.29 1539.59 1194.29 1532.1C1194.29 1530.11 1194.8 1528.07 1195.87 1526.28ZM1176.9 1521.21L1176.9 1514.07L1197.19 1514.07L1197.19 1513.97C1195.15 1512.49 1194.29 1510.04 1194.29 1507.44C1194.29 1501.58 1197.96 1498.77 1204.64 1498.77L1220.14 1498.77L1220.14 1505.91L1205.51 1505.91C1200.36 1505.91 1200 1508.21 1200 1509.84C1200 1512.34 1201.58 1514.07 1207.19 1514.07L1220.14 1514.07L1220.14 1521.21L1176.9 1521.21ZM1208.77 1470.8L1208.77 1487.27C1213.06 1487.22 1215.5 1485.38 1215.5 1482.32C1215.5 1479.93 1214.08 1478.5 1212.09 1477.53L1213.16 1470.95C1218.21 1472.74 1220.96 1477.02 1220.96 1482.32C1220.96 1489.97 1215.5 1494.82 1207.85 1494.82C1199.9 1494.82 1194.29 1490.48 1194.29 1482.68C1194.29 1475.23 1199.29 1470.8 1208.16 1470.8L1208.77 1470.8ZM1204.33 1487.07L1204.33 1477.53C1201.22 1477.99 1199.29 1479.93 1199.29 1482.32C1199.29 1484.57 1200.92 1486.56 1204.33 1487.07ZM1204.64 1444.41L1220.14 1444.41L1220.14 1451.55L1205.66 1451.55C1200.66 1451.55 1200 1453.48 1200 1455.42C1200 1458.07 1201.68 1459.71 1207.19 1459.71L1220.14 1459.71L1220.14 1466.85L1195.1 1466.85L1195.1 1459.71L1197.4 1459.71L1197.4 1459.6C1195.15 1458.12 1194.29 1455.68 1194.29 1453.08C1194.29 1447.21 1197.96 1444.41 1204.64 1444.41Z" fill="white"/>
  <text style="white-space: pre; fill: rgb(51, 51, 51); font-family: Arial, sans-serif; font-size: 28px;" x="1371.26" y="1051.18" transform="matrix(4.3482489585876465, 0, 0, 3.9459891319274902, -4629.74658203125, -3136.5380859375)">4</text>
</svg>